<?xml version="1.0" encoding="UTF-8" standalone="no"?>
<!-- Created with Inkscape (http://www.inkscape.org/) -->

<svg
   width="500"
   height="500"
   viewBox="0 0 132.29167 132.29167"
   version="1.1"
   id="svg5"
   inkscape:version="1.2.1 (9c6d41e410, 2022-07-14)"
   sodipodi:docname="schild.svg"
   inkscape:export-filename="schild.png"
   inkscape:export-xdpi="96"
   inkscape:export-ydpi="96"
   xmlns:inkscape="http://www.inkscape.org/namespaces/inkscape"
   xmlns:sodipodi="http://sodipodi.sourceforge.net/DTD/sodipodi-0.dtd"
   xmlns="http://www.w3.org/2000/svg"
   xmlns:svg="http://www.w3.org/2000/svg">
  <sodipodi:namedview
     id="namedview7"
     pagecolor="#505050"
     bordercolor="#eeeeee"
     borderopacity="1"
     inkscape:showpageshadow="0"
     inkscape:pageopacity="0"
     inkscape:pagecheckerboard="0"
     inkscape:deskcolor="#505050"
     inkscape:document-units="mm"
     showgrid="false"
     inkscape:zoom="1.4823793"
     inkscape:cx="190.572"
     inkscape:cy="283.66558"
     inkscape:window-width="1556"
     inkscape:window-height="749"
     inkscape:window-x="228"
     inkscape:window-y="134"
     inkscape:window-maximized="0"
     inkscape:current-layer="layer3" />
  <defs
     id="defs2" />
  <g
     inkscape:label="Ebene 1"
     inkscape:groupmode="layer"
     id="layer1"
     style="display:inline">
    <path
       style="display:inline;fill:#ac9d93;fill-opacity:1;stroke:#000000;stroke-width:2.69835996;stroke-linecap:round;stroke-dasharray:none;paint-order:markers stroke fill"
       d="m 133.17773,48.513908 c -0.95965,12.004842 -0.25737,24.297291 -0.44332,36.405516 0.54165,117.903106 6.92636,235.695946 14.83375,353.306616 0.66407,3.87372 -0.0433,8.41033 1.54942,11.93839 28.42409,7.27841 57.46792,12.33206 86.67981,15.15888 20.11266,2.25037 40.37802,1.32759 60.56553,0.98914 22.92833,-1.18666 45.79005,-5.98581 66.9558,-14.98198 1.64952,-18.28486 0.87799,-37.03559 1.04465,-55.51012 -0.0689,-53.85419 -1.06015,-107.70394 -3.51567,-161.50471 -2.53147,-57.24981 -5.0679,-114.54925 -10.62737,-171.598468 -0.8192,-4.28032 -0.37283,-9.195864 -2.18136,-13.120229 -8.4364,0.3776 -16.722,3.047768 -25.18555,3.735025 -56.1427,7.442606 -113.13456,4.645251 -169.20168,-2.156866 -6.83287,-0.695277 -13.67985,-2.223232 -20.47401,-2.661194 z"
       id="path3562"
       transform="scale(0.26458333)" />
    <path
       style="fill:none;stroke:#000000;stroke-width:0.52916598;stroke-linecap:butt;stroke-linejoin:miter;stroke-opacity:1;stroke-dasharray:none"
       d="m 34.993304,12.646636 c -0.136048,36.258722 1.812461,71.512147 4.162513,106.571924"
       id="path429"
       sodipodi:nodetypes="cc" />
    <path
       style="fill:none;stroke:#000000;stroke-width:0.52916598;stroke-linecap:butt;stroke-linejoin:miter;stroke-opacity:1;stroke-dasharray:none"
       d="m 92.09097,12.740277 c 1.124509,-1.209478 5.498496,69.380312 4.233085,106.650853"
       id="path429-6"
       sodipodi:nodetypes="cc" />
    <path
       style="fill:none;stroke:#000000;stroke-width:0.52916598;stroke-linecap:butt;stroke-linejoin:miter;stroke-opacity:1;stroke-dasharray:none"
       d="m 39.155818,119.21856 c -0.910717,-0.55302 35.211436,10.24674 57.168237,0.17257"
       id="path462"
       sodipodi:nodetypes="cc" />
    <path
       style="fill:none;stroke:#000000;stroke-width:0.52916598;stroke-linecap:butt;stroke-linejoin:miter;stroke-opacity:1;stroke-dasharray:none"
       d="m 34.953533,12.668619 c 36.978719,5.603739 57.165505,0.172667 57.168237,0.17257"
       id="path466"
       sodipodi:nodetypes="cc" />
  </g>
  <g
     inkscape:groupmode="layer"
     id="layer2"
     inkscape:label="Ebene 2"
     style="display:inline">
    <path
       style="fill:#aa0000;fill-opacity:1;stroke:#000000;stroke-width:2;stroke-linecap:round;stroke-dasharray:none;paint-order:markers stroke fill"
       d="m 135.64684,54.706444 c -0.65694,25.458852 0.16393,51.019546 0.42689,76.512076 1.83198,104.44208 7.54838,208.78154 14.758,312.97604 -0.40123,3.92696 5.09228,2.56574 7.39612,3.83752 32.74045,7.55485 66.06829,13.12588 99.67678,14.5306 23.44573,0.21151 47.15333,0.43832 70.12939,-4.93835 11.19898,-2.5616 22.76653,-5.37046 32.85512,-10.76171 1.87781,-45.78145 0.56724,-91.62288 -0.2362,-137.41591 -2.01869,-74.82581 -5.38612,-149.64233 -11.1288,-224.27974 -1.13259,-9.75166 -1.14483,-19.824087 -3.71053,-29.311613 -2.0816,-1.622527 -5.13265,1.038444 -7.49561,0.706213 -23.80175,4.040739 -47.91062,6.685024 -72.10202,6.321332 -30.79031,0.146845 -61.65486,0.120795 -92.23238,-3.71928 -12.64358,-1.303561 -25.22179,-3.007833 -37.81632,-4.706197 z"
       id="path3076"
       transform="scale(0.26458333)" />
    <path
       style="fill:none;stroke:#000000;stroke-width:0.258063px;stroke-linecap:butt;stroke-linejoin:miter;stroke-opacity:1"
       d="m 35.780125,14.246666 c -0.132696,35.365246 1.767799,69.749966 4.059941,103.945814"
       id="path429-3"
       sodipodi:nodetypes="cc" />
    <path
       style="fill:none;stroke:#000000;stroke-width:0.258063px;stroke-linecap:butt;stroke-linejoin:miter;stroke-opacity:1"
       d="m 91.470807,14.338001 c 1.096799,-1.179676 5.363004,67.670662 4.128774,104.022799"
       id="path429-6-5"
       sodipodi:nodetypes="cc" />
    <path
       style="fill:none;stroke:#000000;stroke-width:0.258063px;stroke-linecap:butt;stroke-linejoin:miter;stroke-opacity:1"
       d="m 39.840067,118.19248 c -0.888275,-0.5394 34.343767,9.99424 55.759514,0.16831"
       id="path462-6"
       sodipodi:nodetypes="cc" />
    <path
       style="fill:none;stroke:#000000;stroke-width:0.258063px;stroke-linecap:butt;stroke-linejoin:miter;stroke-opacity:1"
       d="m 35.741334,14.268108 c 36.0675,5.465653 55.756849,0.168413 55.759514,0.168318"
       id="path466-2"
       sodipodi:nodetypes="cc" />
  </g>
  <g
     inkscape:groupmode="layer"
     id="layer3"
     inkscape:label="Ebene 3"
     style="display:inline">
    <path
       style="display:inline;fill:#ac9d93;fill-opacity:1;stroke:#000000;stroke-width:0.887009;stroke-linecap:round;stroke-dasharray:none;paint-order:markers stroke fill"
       d="m 287.4383,191.90068 c -20.91875,0.62803 -41.85907,1.13296 -62.74984,2.31517 -6.63498,0.73315 -12.12989,7.17014 -11.33196,13.87515 0.57272,32.01079 1.42877,64.02207 2.58557,96.01743 0.0464,4.31708 0.24177,9.12809 3.68191,12.25687 2.93947,3.42035 7.57324,4.31069 11.87396,3.91202 20.72909,-0.61856 41.47351,-1.19312 62.17347,-2.45401 7.19683,-0.23971 12.50168,-7.73492 11.58313,-14.63068 -0.73129,-33.68207 -1.54128,-67.37658 -2.86688,-101.03534 -1.22789,-5.82533 -6.57675,-10.65036 -12.70284,-10.23226 -0.74839,-0.0294 -1.49771,-0.0259 -2.24652,-0.0243 z"
       id="path3928"
       transform="scale(0.26458333)" />
    <path
       style="display:inline;fill:#d38d5f;fill-opacity:0;stroke:#000000;stroke-width:0.529166;stroke-linecap:round;stroke-dasharray:none;paint-order:markers stroke fill"
       id="path660"
       sodipodi:type="arc"
       sodipodi:cx="69.25779"
       sodipodi:cy="67.5718"
       sodipodi:rx="6.0386438"
       sodipodi:ry="6.0386438"
       sodipodi:start="5.153892"
       sodipodi:end="5.1255377"
       sodipodi:open="true"
       sodipodi:arc-type="arc"
       d="m 71.838095,62.112199 a 6.0386438,6.0386438 0 0 1 2.897449,8.001141 6.0386438,6.0386438 0 0 1 -7.980402,2.954093 6.0386438,6.0386438 0 0 1 -3.010587,-7.959261 6.0386438,6.0386438 0 0 1 7.937721,-3.066931" />
    <rect
       style="fill:#d38d5f;fill-opacity:0;stroke:#000000;stroke-width:0.49201;stroke-linecap:round;stroke-dasharray:none;paint-order:markers stroke fill"
       id="rect2928"
       width="24.040352"
       height="33.798676"
       x="54.721981"
       y="53.306976"
       transform="matrix(0.99933865,-0.03636304,0.02712303,0.9996321,0,0)"
       ry="3.647738" />
    <path
       style="fill:#ac9d93;fill-opacity:1;stroke:#000000;stroke-width:0.26458333;stroke-linecap:round;stroke-dasharray:none;paint-order:markers stroke fill"
       id="path3983"
       sodipodi:type="arc"
       sodipodi:cx="58.939774"
       sodipodi:cy="54.212849"
       sodipodi:rx="0.49934345"
       sodipodi:ry="0.49934345"
       sodipodi:start="5.153892"
       sodipodi:end="5.1255377"
       sodipodi:open="true"
       sodipodi:arc-type="arc"
       d="m 59.153142,53.761387 a 0.49934345,0.49934345 0 0 1 0.239594,0.661625 0.49934345,0.49934345 0 0 1 -0.65991,0.244278 0.49934345,0.49934345 0 0 1 -0.248949,-0.658162 0.49934345,0.49934345 0 0 1 0.656381,-0.253609" />
    <path
       style="display:inline;fill:#ac9d93;fill-opacity:1;stroke:#000000;stroke-width:0.264583;stroke-linecap:round;stroke-dasharray:none;paint-order:markers stroke fill"
       id="path3983-1-0"
       sodipodi:type="arc"
       sodipodi:cx="58.517876"
       sodipodi:cy="62.808517"
       sodipodi:rx="0.49934345"
       sodipodi:ry="0.49934345"
       sodipodi:start="5.153892"
       sodipodi:end="5.1255377"
       sodipodi:open="true"
       sodipodi:arc-type="arc"
       d="m 58.731245,62.357056 a 0.49934345,0.49934345 0 0 1 0.239593,0.661625 0.49934345,0.49934345 0 0 1 -0.65991,0.244278 0.49934345,0.49934345 0 0 1 -0.248949,-0.658162 0.49934345,0.49934345 0 0 1 0.656381,-0.253609" />
    <path
       style="display:inline;fill:#ac9d93;fill-opacity:1;stroke:#000000;stroke-width:0.264583;stroke-linecap:round;stroke-dasharray:none;paint-order:markers stroke fill"
       id="path3983-1-7"
       sodipodi:type="arc"
       sodipodi:cx="78.605499"
       sodipodi:cy="74.088058"
       sodipodi:rx="0.49934345"
       sodipodi:ry="0.49934345"
       sodipodi:start="5.153892"
       sodipodi:end="5.1255377"
       sodipodi:open="true"
       sodipodi:arc-type="arc"
       d="m 78.818868,73.636597 a 0.49934345,0.49934345 0 0 1 0.239594,0.661625 0.49934345,0.49934345 0 0 1 -0.65991,0.244278 0.49934345,0.49934345 0 0 1 -0.248949,-0.658162 0.49934345,0.49934345 0 0 1 0.65638,-0.253609" />
    <path
       style="display:inline;fill:#ac9d93;fill-opacity:1;stroke:#000000;stroke-width:0.264583;stroke-linecap:round;stroke-dasharray:none;paint-order:markers stroke fill"
       id="path3983-1-92"
       sodipodi:type="arc"
       sodipodi:cx="78.284904"
       sodipodi:cy="61.856339"
       sodipodi:rx="0.49934345"
       sodipodi:ry="0.49934345"
       sodipodi:start="5.153892"
       sodipodi:end="5.1255377"
       sodipodi:open="true"
       sodipodi:arc-type="arc"
       d="m 78.498273,61.404877 a 0.49934345,0.49934345 0 0 1 0.239594,0.661625 0.49934345,0.49934345 0 0 1 -0.65991,0.244278 0.49934345,0.49934345 0 0 1 -0.248949,-0.658162 0.49934345,0.49934345 0 0 1 0.65638,-0.253609" />
    <path
       style="display:inline;fill:#ac9d93;fill-opacity:1;stroke:#000000;stroke-width:0.264583;stroke-linecap:round;stroke-dasharray:none;paint-order:markers stroke fill"
       id="path3983-1-61"
       sodipodi:type="arc"
       sodipodi:cx="59.027828"
       sodipodi:cy="75.230064"
       sodipodi:rx="0.49934345"
       sodipodi:ry="0.49934345"
       sodipodi:start="5.153892"
       sodipodi:end="5.1255377"
       sodipodi:open="true"
       sodipodi:arc-type="arc"
       d="m 59.241197,74.778603 a 0.49934345,0.49934345 0 0 1 0.239594,0.661625 0.49934345,0.49934345 0 0 1 -0.65991,0.244278 0.49934345,0.49934345 0 0 1 -0.248949,-0.658162 0.49934345,0.49934345 0 0 1 0.65638,-0.253609" />
    <path
       style="display:inline;fill:#ac9d93;fill-opacity:1;stroke:#000000;stroke-width:0.264583;stroke-linecap:round;stroke-dasharray:none;paint-order:markers stroke fill"
       id="path3983-2"
       sodipodi:type="arc"
       sodipodi:cx="77.374977"
       sodipodi:cy="53.569111"
       sodipodi:rx="0.49934345"
       sodipodi:ry="0.49934345"
       sodipodi:start="5.153892"
       sodipodi:end="5.1255377"
       sodipodi:open="true"
       sodipodi:arc-type="arc"
       d="m 77.588346,53.117649 a 0.49934345,0.49934345 0 0 1 0.239594,0.661625 0.49934345,0.49934345 0 0 1 -0.65991,0.244278 0.49934345,0.49934345 0 0 1 -0.24895,-0.658162 0.49934345,0.49934345 0 0 1 0.656381,-0.253608" />
    <path
       style="display:inline;fill:#ac9d93;fill-opacity:1;stroke:#000000;stroke-width:0.264583;stroke-linecap:round;stroke-dasharray:none;paint-order:markers stroke fill"
       id="path3983-7"
       sodipodi:type="arc"
       sodipodi:cx="54.923466"
       sodipodi:cy="-86.65271"
       sodipodi:rx="0.49934345"
       sodipodi:ry="0.49934345"
       sodipodi:start="5.153892"
       sodipodi:end="5.1255377"
       sodipodi:open="true"
       sodipodi:arc-type="arc"
       d="m 55.136835,-87.104172 a 0.49934345,0.49934345 0 0 1 0.239593,0.661625 0.49934345,0.49934345 0 0 1 -0.659909,0.244278 0.49934345,0.49934345 0 0 1 -0.24895,-0.658162 0.49934345,0.49934345 0 0 1 0.656381,-0.253608"
       transform="matrix(0.99737629,-0.0723916,-0.0723916,-0.99737629,0,0)" />
    <path
       style="display:inline;fill:#ac9d93;fill-opacity:1;stroke:#000000;stroke-width:0.264583;stroke-linecap:round;stroke-dasharray:none;paint-order:markers stroke fill"
       id="path3983-2-3"
       sodipodi:type="arc"
       sodipodi:cx="71.404442"
       sodipodi:cy="-87.036392"
       sodipodi:rx="0.49934345"
       sodipodi:ry="0.49934345"
       sodipodi:start="5.153892"
       sodipodi:end="5.1255377"
       sodipodi:open="true"
       sodipodi:arc-type="arc"
       d="m 71.617811,-87.487854 a 0.49934345,0.49934345 0 0 1 0.239594,0.661625 0.49934345,0.49934345 0 0 1 -0.65991,0.244278 0.49934345,0.49934345 0 0 1 -0.24895,-0.658162 0.49934345,0.49934345 0 0 1 0.656381,-0.253608"
       transform="matrix(0.99737629,-0.0723916,-0.0723916,-0.99737629,0,0)" />
  </g>
</svg>
