<?xml version="1.0" encoding="UTF-8" standalone="no"?>
<!-- Created with Inkscape (http://www.inkscape.org/) -->

<svg
   width="1000"
   height="2160"
   viewBox="0 0 1000 2160"
   version="1.1"
   id="svg5"
   inkscape:version="1.2 (dc2aedaf03, 2022-05-15)"
   sodipodi:docname="speer front.svg"
   inkscape:export-filename="speer front.png"
   inkscape:export-xdpi="96"
   inkscape:export-ydpi="96"
   xmlns:inkscape="http://www.inkscape.org/namespaces/inkscape"
   xmlns:sodipodi="http://sodipodi.sourceforge.net/DTD/sodipodi-0.dtd"
   xmlns:xlink="http://www.w3.org/1999/xlink"
   xmlns="http://www.w3.org/2000/svg"
   xmlns:svg="http://www.w3.org/2000/svg">
  <sodipodi:namedview
     id="namedview7"
     pagecolor="#505050"
     bordercolor="#eeeeee"
     borderopacity="1"
     inkscape:showpageshadow="0"
     inkscape:pageopacity="0"
     inkscape:pagecheckerboard="0"
     inkscape:deskcolor="#505050"
     inkscape:document-units="px"
     showgrid="true"
     inkscape:zoom="0.35355339"
     inkscape:cx="473.76154"
     inkscape:cy="900.85403"
     inkscape:window-width="1920"
     inkscape:window-height="1011"
     inkscape:window-x="0"
     inkscape:window-y="32"
     inkscape:window-maximized="1"
     inkscape:current-layer="layer1" />
  <defs
     id="defs2">
    <inkscape:path-effect
       effect="bspline"
       id="path-effect2920"
       is_visible="true"
       lpeversion="1"
       weight="33.333333"
       steps="2"
       helper_size="0"
       apply_no_weight="true"
       apply_with_weight="true"
       only_selected="false" />
    <linearGradient
       inkscape:collect="always"
       id="linearGradient2524">
      <stop
         style="stop-color:#ac9393;stop-opacity:1;"
         offset="0"
         id="stop2520" />
      <stop
         style="stop-color:#6b5f5f;stop-opacity:1;"
         offset="1"
         id="stop2522" />
    </linearGradient>
    <linearGradient
       inkscape:collect="always"
       id="linearGradient2512">
      <stop
         style="stop-color:#ac9393;stop-opacity:1;"
         offset="0.40316564"
         id="stop2508" />
      <stop
         style="stop-color:#6b5f5f;stop-opacity:1;"
         offset="1"
         id="stop2510" />
    </linearGradient>
    <linearGradient
       inkscape:collect="always"
       id="linearGradient2504">
      <stop
         style="stop-color:#28170b;stop-opacity:1;"
         offset="0"
         id="stop2500" />
      <stop
         style="stop-color:#240606;stop-opacity:1;"
         offset="1"
         id="stop2502" />
    </linearGradient>
    <inkscape:path-effect
       effect="bspline"
       id="path-effect1883"
       is_visible="true"
       lpeversion="1"
       weight="33.333333"
       steps="2"
       helper_size="0"
       apply_no_weight="true"
       apply_with_weight="true"
       only_selected="false" />
    <inkscape:path-effect
       effect="bspline"
       id="path-effect1879"
       is_visible="true"
       lpeversion="1"
       weight="33.333333"
       steps="2"
       helper_size="0"
       apply_no_weight="true"
       apply_with_weight="true"
       only_selected="false" />
    <inkscape:path-effect
       effect="bspline"
       id="path-effect1821"
       is_visible="true"
       lpeversion="1"
       weight="33.333333"
       steps="2"
       helper_size="0"
       apply_no_weight="true"
       apply_with_weight="true"
       only_selected="false" />
    <inkscape:path-effect
       effect="bspline"
       id="path-effect1817"
       is_visible="true"
       lpeversion="1"
       weight="33.333333"
       steps="2"
       helper_size="0"
       apply_no_weight="true"
       apply_with_weight="true"
       only_selected="false" />
    <inkscape:path-effect
       effect="bspline"
       id="path-effect1813"
       is_visible="true"
       lpeversion="1"
       weight="33.333333"
       steps="2"
       helper_size="0"
       apply_no_weight="true"
       apply_with_weight="true"
       only_selected="false" />
    <inkscape:path-effect
       effect="bspline"
       id="path-effect1809"
       is_visible="true"
       lpeversion="1"
       weight="33.333333"
       steps="2"
       helper_size="0"
       apply_no_weight="true"
       apply_with_weight="true"
       only_selected="false" />
    <inkscape:path-effect
       effect="bspline"
       id="path-effect1801"
       is_visible="true"
       lpeversion="1"
       weight="33.333333"
       steps="2"
       helper_size="0"
       apply_no_weight="true"
       apply_with_weight="true"
       only_selected="false" />
    <inkscape:path-effect
       effect="bspline"
       id="path-effect1795"
       is_visible="true"
       lpeversion="1"
       weight="33.333333"
       steps="2"
       helper_size="0"
       apply_no_weight="true"
       apply_with_weight="true"
       only_selected="false" />
    <inkscape:path-effect
       effect="bspline"
       id="path-effect1789"
       is_visible="true"
       lpeversion="1"
       weight="33.333333"
       steps="2"
       helper_size="0"
       apply_no_weight="true"
       apply_with_weight="true"
       only_selected="false" />
    <inkscape:path-effect
       effect="bspline"
       id="path-effect1785"
       is_visible="true"
       lpeversion="1"
       weight="33.333333"
       steps="2"
       helper_size="0"
       apply_no_weight="true"
       apply_with_weight="true"
       only_selected="false" />
    <inkscape:path-effect
       effect="bspline"
       id="path-effect1781"
       is_visible="true"
       lpeversion="1"
       weight="33.333333"
       steps="2"
       helper_size="0"
       apply_no_weight="true"
       apply_with_weight="true"
       only_selected="false" />
    <inkscape:path-effect
       effect="bspline"
       id="path-effect1051"
       is_visible="true"
       lpeversion="1"
       weight="33.333333"
       steps="2"
       helper_size="0"
       apply_no_weight="true"
       apply_with_weight="true"
       only_selected="false" />
    <inkscape:path-effect
       effect="bspline"
       id="path-effect1047"
       is_visible="true"
       lpeversion="1"
       weight="33.333333"
       steps="2"
       helper_size="0"
       apply_no_weight="true"
       apply_with_weight="true"
       only_selected="false" />
    <inkscape:path-effect
       effect="bspline"
       id="path-effect1043"
       is_visible="true"
       lpeversion="1"
       weight="33.333333"
       steps="2"
       helper_size="0"
       apply_no_weight="true"
       apply_with_weight="true"
       only_selected="false" />
    <inkscape:path-effect
       effect="bspline"
       id="path-effect1039"
       is_visible="true"
       lpeversion="1"
       weight="33.333333"
       steps="2"
       helper_size="0"
       apply_no_weight="true"
       apply_with_weight="true"
       only_selected="false" />
    <inkscape:path-effect
       effect="bspline"
       id="path-effect480"
       is_visible="true"
       lpeversion="1"
       weight="33.333333"
       steps="2"
       helper_size="0"
       apply_no_weight="true"
       apply_with_weight="true"
       only_selected="false" />
    <inkscape:path-effect
       effect="bspline"
       id="path-effect474"
       is_visible="true"
       lpeversion="1"
       weight="33.333333"
       steps="2"
       helper_size="0"
       apply_no_weight="true"
       apply_with_weight="true"
       only_selected="false" />
    <inkscape:path-effect
       effect="bspline"
       id="path-effect470"
       is_visible="true"
       lpeversion="1"
       weight="33.333333"
       steps="2"
       helper_size="0"
       apply_no_weight="true"
       apply_with_weight="true"
       only_selected="false" />
    <inkscape:path-effect
       effect="bspline"
       id="path-effect464"
       is_visible="true"
       lpeversion="1"
       weight="33.333333"
       steps="2"
       helper_size="0"
       apply_no_weight="true"
       apply_with_weight="true"
       only_selected="false" />
    <inkscape:path-effect
       effect="bspline"
       id="path-effect460"
       is_visible="true"
       lpeversion="1"
       weight="33.333333"
       steps="2"
       helper_size="0"
       apply_no_weight="true"
       apply_with_weight="true"
       only_selected="false" />
    <inkscape:path-effect
       effect="bspline"
       id="path-effect456"
       is_visible="true"
       lpeversion="1"
       weight="33.333333"
       steps="2"
       helper_size="0"
       apply_no_weight="true"
       apply_with_weight="true"
       only_selected="false" />
    <inkscape:path-effect
       effect="bspline"
       id="path-effect452"
       is_visible="true"
       lpeversion="1"
       weight="33.333333"
       steps="2"
       helper_size="0"
       apply_no_weight="true"
       apply_with_weight="true"
       only_selected="false" />
    <inkscape:path-effect
       effect="bspline"
       id="path-effect448"
       is_visible="true"
       lpeversion="1"
       weight="33.333333"
       steps="2"
       helper_size="0"
       apply_no_weight="true"
       apply_with_weight="true"
       only_selected="false" />
    <inkscape:path-effect
       effect="bspline"
       id="path-effect444"
       is_visible="true"
       lpeversion="1"
       weight="33.333333"
       steps="2"
       helper_size="0"
       apply_no_weight="true"
       apply_with_weight="true"
       only_selected="false" />
    <inkscape:path-effect
       effect="bspline"
       id="path-effect221"
       is_visible="true"
       lpeversion="1"
       weight="33.333333"
       steps="2"
       helper_size="0"
       apply_no_weight="true"
       apply_with_weight="true"
       only_selected="false" />
    <linearGradient
       inkscape:collect="always"
       xlink:href="#linearGradient2504"
       id="linearGradient2506"
       x1="457.61962"
       y1="1067.5032"
       x2="493.9311"
       y2="1067.5032"
       gradientUnits="userSpaceOnUse" />
    <radialGradient
       inkscape:collect="always"
       xlink:href="#linearGradient2512"
       id="radialGradient2514"
       cx="474.64993"
       cy="262.95145"
       fx="474.64993"
       fy="262.95145"
       r="26.207274"
       gradientTransform="matrix(0.04091132,-12.127265,1.0366964,0.00349729,182.63057,6018.2371)"
       gradientUnits="userSpaceOnUse" />
    <linearGradient
       inkscape:collect="always"
       xlink:href="#linearGradient2524"
       id="linearGradient2528"
       x1="475.90454"
       y1="1706.571"
       x2="475.05334"
       y2="1824.7866"
       gradientUnits="userSpaceOnUse" />
  </defs>
  <g
     inkscape:label="Ebene 1"
     inkscape:groupmode="layer"
     id="layer1">
    <path
       style="display:inline;fill:url(#linearGradient2506);stroke-width:0.709131;stroke-linecap:square;stroke-dasharray:none;paint-order:markers stroke fill;fill-opacity:1"
       d="m 457.61962,430.84761 c 0,424.32566 0,848.65139 0,1272.97699 12.37558,2.4644 42.68834,9.201 35.11227,-14.2232 0,-419.5846 0,-839.16922 0,-1258.75379 -9.04371,-3.07145 -26.06328,-3.53592 -35.11227,0 z"
       id="path2028" />
    <path
       style="fill:url(#linearGradient2528);stroke-width:0.125;stroke-linecap:square;stroke-dasharray:none;paint-order:markers stroke fill;fill-opacity:1"
       d="m 455.04332,1703.6912 c -1.66097,3.0316 -0.21231,6.864 -0.42611,10.2542 1.75891,24.3464 7.10006,48.2484 11.31077,72.2459 1.83055,9.3912 3.36753,18.8607 5.44835,28.1913 1.60516,2.5631 7.27231,2.4741 7.15065,-1.2842 5.45583,-30.6679 12.17576,-61.1597 15.77588,-92.1249 0.38437,-5.4788 1.17014,-11.1219 0.50089,-16.5337 -2.13606,-2.2909 -5.93016,-0.2349 -8.82752,-0.6104 -10.04795,0.3063 -20.1935,0.2193 -30.03299,-0.394 l -0.48094,0.1367 z"
       id="path2107" />
    <path
       style="fill:url(#radialGradient2514);stroke-width:0.125;stroke-linecap:square;stroke-dasharray:none;paint-order:markers stroke fill;fill-opacity:1"
       d="m 471.99071,90.13641 c -2.36653,5.343872 -2.89739,11.48077 -4.52019,17.14278 -7.18645,31.65189 -14.69294,63.35945 -18.26712,95.66743 -0.94933,15.51239 -2.25168,32.03806 4.74337,46.4642 2.63821,5.5604 6.37102,10.52632 10.54394,15.02246 -3.45167,54.77613 -7.1767,109.55722 -10.44107,164.33148 1.33019,2.87561 5.0659,3.65686 7.62759,5.19977 7.71679,2.99911 16.46095,2.49715 24.38357,0.61772 3.20468,-1.24473 6.85703,-2.1204 9.38304,-4.5103 -3.57855,-55.0704 -7.11623,-110.34676 -10.61621,-165.50097 7.68742,-8.49964 13.88132,-18.82691 15.09395,-30.42301 3.08771,-24.89404 -2.07926,-49.81735 -6.60011,-74.20456 -4.52635,-22.89558 -9.86684,-45.61859 -15.13447,-68.351922 -0.98445,-2.183417 -4.24818,-1.958601 -6.19629,-1.455078 z"
       id="path2104" />
    <path
       style="display:inline;fill:none;stroke:#000000;stroke-width:2;stroke-linecap:butt;stroke-linejoin:miter;stroke-dasharray:none;stroke-opacity:1"
       d="m 475.4096,79.947176 c -12.3512,52.208604 -24.2625,102.557764 -25.51757,133.619304 -1.25508,31.06153 7.32122,40.72876 16.41917,50.98398"
       id="path219"
       inkscape:path-effect="#path-effect221"
       inkscape:original-d="m 475.4096,79.947176 c -11.68722,52.365684 -24.26195,102.557894 -36.39361,153.836074 9.63608,10.83135 18.19726,20.51199 27.29521,30.76721" />
    <path
       style="display:inline;fill:none;stroke:#000000;stroke-width:2;stroke-linecap:butt;stroke-linejoin:miter;stroke-dasharray:none;stroke-opacity:1"
       d="m 475.4096,79.947176 c 12.3512,52.208604 24.2625,102.557764 25.51758,133.619304 1.25507,31.06154 -7.32123,40.72876 -16.41918,50.98398"
       id="path466"
       inkscape:path-effect="#path-effect470"
       inkscape:original-d="m 475.4096,79.947176 c 11.68722,52.365684 24.26195,102.557894 36.39362,153.836074 -9.63609,10.83135 -18.19727,20.51199 -27.29522,30.76721" />
    <path
       style="display:inline;fill:none;stroke:#000000;stroke-width:2;stroke-linecap:butt;stroke-linejoin:miter;stroke-dasharray:none;stroke-opacity:1"
       d="m 465.99419,264.57081 c -3.51185,54.6963 -7.02362,109.39153 -10.53533,164.08569"
       id="path472"
       inkscape:path-effect="#path-effect474"
       inkscape:original-d="m 465.99419,264.57081 c -3.51062,54.69638 -7.0224,109.39161 -10.53533,164.08569" />
    <path
       style="display:inline;fill:none;stroke:#000000;stroke-width:2;stroke-linecap:butt;stroke-linejoin:miter;stroke-dasharray:none;stroke-opacity:1"
       d="m 484.82763,264.57098 c 3.52792,54.9466 7.05576,109.89212 10.58354,164.83658"
       id="path476"
       inkscape:path-effect="#path-effect480"
       inkscape:original-d="m 484.82763,264.57098 c 3.52669,54.94668 7.05454,109.8922 10.58354,164.83658" />
    <path
       style="display:inline;fill:none;stroke:#000000;stroke-width:1px;stroke-linecap:butt;stroke-linejoin:miter;stroke-opacity:1"
       d="m 455.45886,428.6565 c 3.16749,2.13552 6.33383,4.27026 11.24805,5.34866 4.91422,1.0784 11.57621,1.10123 16.61677,0.17789 5.04056,-0.92333 8.59886,-2.86843 12.08749,-4.77545"
       id="path1037"
       inkscape:path-effect="#path-effect1039"
       inkscape:original-d="m 455.45886,428.6565 c 3.16734,2.13574 6.33368,4.27048 9.49901,6.40422 6.66326,0.0238 13.32525,0.0466 19.98637,0.0685 3.53007,-1.66814 6.97895,-3.81341 10.46693,-5.72162" />
    <path
       style="display:inline;fill:none;stroke:#000000;stroke-width:1px;stroke-linecap:butt;stroke-linejoin:miter;stroke-opacity:1"
       d="m 492.561,430.93023 c 0,424.16941 0,848.33777 0,1272.50517"
       id="path1045"
       inkscape:path-effect="#path-effect1047"
       inkscape:original-d="m 492.561,430.93023 c 0.001,424.16941 0.001,848.33777 0,1272.50517" />
    <path
       style="display:inline;fill:none;stroke:#000000;stroke-width:1px;stroke-linecap:butt;stroke-linejoin:miter;stroke-opacity:1"
       d="m 455.94324,1703.4354 c 0,7.2388 0,14.4767 3.1852,34.7023 3.18519,20.2256 9.5551,53.4375 15.9249,86.6489"
       id="path1787"
       inkscape:path-effect="#path-effect1789"
       inkscape:original-d="m 455.94324,1703.4354 c 10e-4,7.2388 10e-4,14.4767 0,21.7135 6.37116,33.2143 12.74106,66.4262 19.1101,99.6377" />
    <path
       style="display:inline;fill:none;stroke:#000000;stroke-width:1px;stroke-linecap:butt;stroke-linejoin:miter;stroke-opacity:1"
       d="m 494.26067,1703.4354 c 0,7.2388 0,14.4767 -3.1852,34.7023 -3.18519,20.2256 -9.5551,53.4375 -15.9249,86.6489"
       id="path1797"
       inkscape:path-effect="#path-effect1801"
       inkscape:original-d="m 494.26067,1703.4354 c -10e-4,7.2388 -10e-4,14.4767 0,21.7135 -6.37116,33.2143 -12.74106,66.4262 -19.1101,99.6377" />
    <path
       style="display:inline;fill:none;stroke:#000000;stroke-width:1px;stroke-linecap:butt;stroke-linejoin:miter;stroke-opacity:1"
       d="m 455.47342,1703.4697 c 1.85888,0.3402 3.71662,0.6802 9.26619,0.8501 5.54956,0.1699 14.79073,0.1699 20.402,0.01 5.61127,-0.1637 7.59259,-0.4909 9.57312,-0.818"
       id="path1807"
       inkscape:path-effect="#path-effect1809"
       inkscape:original-d="m 455.47342,1703.4697 c 1.85874,0.341 3.71648,0.681 5.57322,1.02 9.24253,10e-4 18.4837,10e-4 27.72405,0 1.98238,-0.3262 3.96369,-0.6535 5.94404,-0.9817" />
    <path
       style="display:inline;fill:none;stroke:#000000;stroke-width:1px;stroke-linecap:butt;stroke-linejoin:miter;stroke-opacity:1"
       d="m 457.58265,430.06407 c 0,424.58614 0,849.17123 0,1273.75543"
       id="path1811"
       inkscape:path-effect="#path-effect1813"
       inkscape:original-d="m 457.58265,430.06407 c 10e-4,424.58614 10e-4,849.17123 0,1273.75543" />
    <path
       style="display:inline;fill:none;stroke:#000000;stroke-width:1px;stroke-linecap:butt;stroke-linejoin:miter;stroke-opacity:1"
       d="m 455.94324,1703.4354 c 0.42741,-0.1727 1.09345,-0.4418 1.63941,-0.6624"
       id="path1815"
       inkscape:path-effect="#path-effect1817"
       inkscape:original-d="m 455.94324,1703.4354 c 0.40838,-0.2198 1.09394,-0.4406 1.63941,-0.6624" />
    <path
       style="fill:none;stroke:#000000;stroke-width:1px;stroke-linecap:butt;stroke-linejoin:miter;stroke-opacity:1"
       d="m 494.26067,1703.5827 c -0.6148,-0.053 -1.13201,-0.098 -1.69967,-0.1473"
       id="path1819"
       inkscape:path-effect="#path-effect1821"
       inkscape:original-d="m 494.26067,1703.5827 c -0.59007,-0.3386 -1.13211,-0.097 -1.69967,-0.1473" />
    <path
       style="display:inline;fill:#1a1a1a;stroke-width:1.04831;stroke-linecap:square;stroke-dasharray:none;paint-order:markers stroke fill"
       id="path1875"
       sodipodi:type="arc"
       sodipodi:cx="475"
       sodipodi:cy="420"
       sodipodi:rx="3.610821"
       sodipodi:ry="3.610821"
       sodipodi:start="5.153892"
       sodipodi:end="5.1451169"
       sodipodi:arc-type="slice"
       d="m 476.5429,416.73542 a 3.610821,3.610821 0 0 1 1.72506,4.80031 3.610821,3.610821 0 0 1 -4.79652,1.73559 3.610821,3.610821 0 0 1 -1.7461,-4.7927 3.610821,3.610821 0 0 1 4.78885,-1.75661 L 475,420 Z" />
    <path
       style="display:inline;fill:none;stroke:#000000;stroke-width:0.88161px;stroke-linecap:round;stroke-linejoin:miter;stroke-opacity:1"
       d="m 475,80 c 0,42.19499 0,85.49675 0,128.24396"
       id="path1877"
       inkscape:path-effect="#path-effect1879"
       inkscape:original-d="m 475,80 c 0.4889,42.19499 10e-4,85.49675 0,128.24396" />
    <path
       style="display:inline;fill:none;stroke:#000000;stroke-width:0.25;stroke-linecap:butt;stroke-linejoin:miter;stroke-dasharray:none;stroke-opacity:1"
       d="m 465.99419,266.13559 c 3.0435,-0.78486 6.08583,-1.56941 9.25822,-1.56103 3.17238,0.008 6.34044,0.77654 9.57522,1.56086"
       id="path1881"
       inkscape:path-effect="#path-effect1883"
       inkscape:original-d="m 465.99419,266.13559 c 3.04332,-0.78555 6.08565,-1.57011 9.12697,-2.35366 3.31239,0.7649 6.47198,1.56799 9.70647,2.35349" />
    <path
       style="fill:#000000;stroke-width:0.25;stroke-linecap:square;stroke-dasharray:none;paint-order:markers stroke fill"
       id="path2243"
       d="m 459.05766,437.57752 c 0.1841,1.72289 0.31554,3.45059 0.43215,5.17915 0.15176,2.61873 0.248,5.24033 0.36338,7.86086 0.0788,2.76343 0.29026,5.51799 0.54071,8.27022 0.3817,3.72401 0.73779,7.45049 1.10705,11.17574 0.38209,3.5492 0.94193,7.07514 1.34861,10.62129 0,0 0.86749,-0.0102 0.86749,-0.0102 v 0 c -0.43057,-3.54306 -1.00316,-7.06772 -1.36462,-10.61935 -0.35615,-3.72509 -0.69984,-7.45133 -1.06609,-11.17546 -0.24292,-2.75126 -0.43881,-5.50495 -0.52305,-8.26629 -0.11801,-2.62093 -0.22387,-5.24243 -0.35415,-7.86276 -0.10742,-1.7283 -0.2447,-3.45427 -0.36564,-5.18161 0,0 -0.98584,0.008 -0.98584,0.008 z" />
    <path
       style="fill:#000000;stroke-width:0.25;stroke-linecap:square;stroke-dasharray:none;paint-order:markers stroke fill"
       id="path2245"
       d="m 464.04363,441.65225 c 0.0579,1.82062 -0.0955,3.6402 -0.15556,5.45943 -0.0846,2.66268 0.0477,5.32227 0.23947,7.97698 0.19061,2.62067 0.41797,5.23825 0.65341,7.8552 0.21637,2.59449 0.37869,5.19297 0.58001,7.78869 0.23844,2.90017 0.57267,5.7898 0.77634,8.69293 0.22922,3.25924 0.36713,6.52269 0.43585,9.78892 -0.0137,4.15524 0.23009,8.30104 0.48845,12.44601 0.07,1.43356 0.16302,2.93006 0.15824,4.36795 -0.002,0.6 -0.0402,1.19934 -0.0603,1.79901 0,0 0.87396,0.002 0.87396,0.002 v 0 c 0.0131,-0.6012 0.0425,-1.20226 0.0394,-1.8036 -0.007,-1.37866 -0.10428,-3.00117 -0.17257,-4.37091 -0.24927,-4.14384 -0.47839,-8.28911 -0.44698,-12.44259 -0.0584,-3.26788 -0.20511,-6.53203 -0.42208,-9.79336 -0.19606,-2.90385 -0.53288,-5.7931 -0.77001,-8.69351 -0.18798,-2.59694 -0.34677,-5.19618 -0.57471,-7.79001 -0.23089,-2.61673 -0.45925,-5.23367 -0.65067,-7.85367 -0.18976,-2.65117 -0.33243,-5.30809 -0.23993,-7.96713 0.0738,-1.822 0.23596,-3.64095 0.2303,-5.46519 0,0 -0.98262,0.002 -0.98262,0.002 z" />
    <path
       style="fill:#000000;stroke-width:0.25;stroke-linecap:square;stroke-dasharray:none;paint-order:markers stroke fill"
       id="path2247"
       d="m 461.07738,484.06284 c -0.26654,1.93981 -0.38823,3.89557 -0.53524,5.84697 -0.25401,3.42527 -0.50538,6.85082 -0.73488,10.27783 -0.21656,3.7204 -0.51005,7.43595 -0.68334,11.15871 -0.12994,3.98042 -0.25374,7.96106 -0.38069,11.94159 -0.13389,2.93298 -0.13479,5.87665 -0.39928,8.80287 -0.0494,0.54659 -0.1271,1.09025 -0.19065,1.63537 0,0 0.88473,0.01 0.88473,0.01 v 0 c 0.0561,-0.54648 0.12448,-1.09184 0.16822,-1.63944 0.23397,-2.92912 0.23631,-5.87176 0.37704,-8.80546 0.15669,-3.97955 0.27958,-7.96005 0.41133,-11.94044 0.18083,-3.72159 0.45473,-7.43787 0.68106,-11.15688 0.24284,-3.42636 0.49115,-6.85253 0.76404,-10.27662 0.1658,-1.9496 0.29728,-3.90707 0.6186,-5.83894 0,0 -0.98094,-0.0152 -0.98094,-0.0152 z" />
    <path
       style="fill:#000000;stroke-width:0.25;stroke-linecap:square;stroke-dasharray:none;paint-order:markers stroke fill"
       id="path2249"
       d="m 463.39472,508.56055 c 0.0737,1.53159 -0.0109,3.06213 -0.0997,4.5909 -0.21183,3.56856 -0.44002,7.13611 -0.67273,10.70336 -0.4142,5.39 -0.75189,10.78395 -1.00638,16.18372 -0.0839,2.13105 -0.178,4.26122 -0.30361,6.39018 0,0 0.88189,0.004 0.88189,0.004 v 0 c 0.0838,-2.13003 0.14547,-4.26069 0.22698,-6.39083 0.23972,-5.40072 0.6065,-10.79291 1.03928,-16.18155 0.26595,-3.56672 0.50721,-7.13516 0.75067,-10.70348 0.10269,-1.53017 0.19806,-3.06054 0.17223,-4.59513 0,0 -0.98867,-0.002 -0.98867,-0.002 z" />
    <path
       style="fill:#000000;stroke-width:0.25;stroke-linecap:square;stroke-dasharray:none;paint-order:markers stroke fill"
       id="path2251"
       d="m 466.26774,520.01868 c -0.50713,1.35203 -0.53961,2.82089 -0.63078,4.24555 -0.17291,4.32237 -0.26055,8.64788 -0.40501,12.97153 -0.18982,6.1519 -0.30587,12.30459 -0.57739,18.45371 0,0 0.74662,0.003 0.74662,0.003 v 0 c 0.25008,-6.14997 0.37172,-12.30337 0.60452,-18.4539 0.18847,-4.32265 0.33068,-8.64752 0.55662,-12.96826 0.1007,-1.41453 0.14217,-2.88225 0.69214,-4.21019 0,0 -0.98672,-0.0416 -0.98672,-0.0416 z" />
    <path
       style="fill:#000000;stroke-width:0.25;stroke-linecap:square;stroke-dasharray:none;paint-order:markers stroke fill"
       id="path2253"
       d="m 459.61056,548.72014 c 0.33807,3.12255 0.4508,6.26541 0.62378,9.40025 0.24334,4.37119 0.35054,8.75064 0.25295,13.12816 -0.0762,3.41783 -0.18171,4.89744 -0.36421,8.35059 -0.4475,6.5991 -0.9007,13.19698 -1.24355,19.80247 0,0 0.78174,0.004 0.78174,0.004 v 0 c 0.25285,-6.60856 0.6849,-13.2061 1.16044,-19.80216 0.19458,-3.41404 0.30903,-4.97213 0.40369,-8.35347 0.12257,-4.37811 0.0383,-8.75895 -0.16481,-13.1333 -0.1455,-3.13503 -0.24251,-6.27344 -0.4682,-9.40399 0,0 -0.98183,0.008 -0.98183,0.008 z" />
    <path
       style="fill:#000000;stroke-width:0.25;stroke-linecap:square;stroke-dasharray:none;paint-order:markers stroke fill"
       id="path2255"
       d="m 464.39284,562.32253 c 0.10946,3.62184 0.026,7.24376 -0.0759,10.86455 -0.33983,8.44518 -0.83119,16.88303 -1.1821,25.32783 -0.20657,5.24624 -0.33964,10.49548 -0.75258,15.73057 0,0 0.84209,0.006 0.84209,0.006 v 0 c 0.33406,-5.23924 0.42939,-10.4876 0.6076,-15.73373 0.33746,-8.4471 0.82105,-16.88611 1.26595,-25.32799 0.14682,-3.62065 0.244,-7.24166 0.2839,-10.86493 0,0 -0.98891,-0.002 -0.98891,-0.002 z" />
    <path
       style="fill:#000000;stroke-width:0.25;stroke-linecap:square;stroke-dasharray:none;paint-order:markers stroke fill"
       id="path2257"
       d="m 465.4568,602.6486 c -0.10685,0.79179 -0.13417,0.90808 -0.18812,1.83686 -0.0697,1.20015 -0.10247,2.8673 -0.12512,4.02697 -0.13043,6.67777 0.0447,-0.88062 -0.13961,6.67399 -0.25828,9.07096 -0.91627,18.12422 -1.76235,27.15743 0,0 0.71464,0.006 0.71464,0.006 v 0 c 0.75736,-9.04225 1.44073,-18.09303 1.79326,-27.16151 0.0799,-2.22447 0.1538,-4.44917 0.23495,-6.6736 0.05,-1.37106 0.0883,-2.65977 0.20272,-4.0206 0.0792,-0.94205 0.10893,-1.03151 0.24846,-1.82689 0,0 -0.97883,-0.019 -0.97883,-0.019 z" />
    <path
       style="fill:#000000;stroke-width:0.25;stroke-linecap:square;stroke-dasharray:none;paint-order:markers stroke fill"
       id="path2259"
       d="m 460.19863,621.11016 c -0.18427,3.56237 -0.25013,7.12924 -0.32751,10.6951 -0.15634,8.79161 -0.29763,17.58345 -0.45947,26.37498 -0.11049,5.50008 -0.0372,2.84312 -0.2121,7.97108 0,0 0.74055,0.002 0.74055,0.002 v 0 c 0.12118,-5.12917 0.0688,-2.47186 0.15248,-7.97202 0.14585,-8.79202 0.29351,-17.58449 0.55326,-26.37401 0.12199,-3.56456 0.22456,-7.13348 0.53963,-10.68754 0,0 -0.98684,-0.01 -0.98684,-0.01 z" />
    <path
       style="fill:#000000;stroke-width:0.25;stroke-linecap:square;stroke-dasharray:none;paint-order:markers stroke fill"
       id="path2261"
       d="m 462.28592,645.36716 c 0.34496,3.00167 0.72585,6.00127 0.95266,9.01509 0.0834,1.10813 0.13619,2.21835 0.20429,3.32753 0.22304,6.51631 0.0189,13.05179 -0.52781,19.54878 -0.0889,1.05681 -0.21255,2.11042 -0.31882,3.16563 0,0 0.77748,0.007 0.77748,0.007 v 0 c 0.66144,-7.55313 1.06186,-15.14254 0.83592,-22.7261 -0.0591,-1.10996 -0.10457,-2.22073 -0.17721,-3.32989 -0.19718,-3.01071 -0.5447,-6.00907 -0.7622,-9.0181 0,0 -0.98431,0.01 -0.98431,0.01 z" />
    <path
       style="fill:#000000;stroke-width:0.25;stroke-linecap:square;stroke-dasharray:none;paint-order:markers stroke fill"
       id="path2263"
       d="m 467.2885,649.123 c -0.0519,3.0217 0.0516,6.04335 0.0428,9.06538 -0.004,1.30133 -0.024,2.60256 -0.036,3.90384 -0.21968,8.03468 -0.36007,16.07667 -0.80975,24.10311 -0.0688,1.22763 -0.16242,2.45374 -0.24364,3.68061 0,0 0.74205,0.004 0.74205,0.004 v 0 c 0.48334,-9.25655 0.69313,-18.52467 1.03822,-27.78697 0.029,-1.30158 0.0645,-2.60303 0.087,-3.90473 0.0521,-3.01974 -0.009,-6.04412 0.16272,-9.06053 0,0 -0.98337,-0.005 -0.98337,-0.005 z" />
    <path
       style="fill:#000000;stroke-width:0.25;stroke-linecap:square;stroke-dasharray:none;paint-order:markers stroke fill"
       id="path2265"
       d="m 459.93992,673.09834 c -0.47051,1.55449 -0.352,3.22581 -0.36081,4.83029 -0.0731,5.33045 -0.13706,10.66113 -0.21176,15.99162 -0.0749,5.61904 -0.38884,11.23137 -0.49353,16.84954 -0.0225,1.20772 -0.0243,2.41574 -0.0364,3.6236 0,0 0.74659,4.1e-4 0.74659,4.1e-4 v 0 c 0.001,-1.20742 -0.012,-2.41493 0.003,-3.62226 0.0705,-5.61939 0.40112,-11.23173 0.51789,-16.84995 0.11826,-5.33087 0.24013,-10.66148 0.37561,-15.9919 0.0288,-1.59147 -0.0674,-3.26337 0.44562,-4.7927 0,0 -0.9864,-0.0386 -0.9864,-0.0386 z" />
    <path
       style="fill:#000000;stroke-width:0.25;stroke-linecap:square;stroke-dasharray:none;paint-order:markers stroke fill"
       id="path2267"
       d="m 463.07697,693.20651 c -0.1723,3.45712 -0.30417,6.91627 -0.46001,10.37423 -0.43161,8.78736 -0.89936,17.57281 -1.30235,26.36157 -0.13869,3.54764 -0.3044,7.09238 -0.54322,10.63454 0,0 0.79583,0.005 0.79583,0.005 v 0 c 0.17826,-3.54423 0.30516,-7.08995 0.43859,-10.63617 0.37371,-8.79145 0.83834,-17.57834 1.38807,-26.36062 0.20098,-3.45684 0.36265,-6.91873 0.67323,-10.36779 0,0 -0.99014,-0.0104 -0.99014,-0.0104 z" />
    <path
       style="fill:#000000;stroke-width:0.25;stroke-linecap:square;stroke-dasharray:none;paint-order:markers stroke fill"
       id="path2269"
       d="m 465.90328,702.61502 c 0.20616,4.33389 0.26822,8.67137 0.28674,13.0095 -0.0143,1.40874 -0.0191,2.81761 -0.0427,4.22623 -0.0814,4.85568 -0.25437,9.70975 -0.3766,14.56445 -0.10797,4.28866 -0.13128,5.79883 -0.21426,10.06768 -0.12775,6.00275 -0.0435,3.10003 -0.24415,8.70842 0,0 0.71589,0.002 0.71589,0.002 v 0 c 0.14379,-5.60968 0.082,-2.70658 0.17998,-8.7094 0.0779,-4.35551 0.0924,-5.69003 0.20855,-10.06706 0.16618,-6.26442 0.41924,-12.52653 0.5272,-18.79247 0.0244,-4.33714 -0.0152,-8.67288 -0.0614,-13.00955 0,0 -0.97917,0 -0.97917,0 z" />
    <path
       style="fill:#000000;stroke-width:0.25;stroke-linecap:square;stroke-dasharray:none;paint-order:markers stroke fill"
       id="path2271"
       d="m 459.43604,743.32823 c -0.14318,0.3581 -0.29416,0.71304 -0.4468,1.06719 -0.13967,0.35241 -0.0367,0.77236 -0.0118,1.1304 0.0272,0.39124 0.052,0.78264 0.078,1.17396 0.32666,6.03809 -0.0347,12.08536 -0.49151,18.10619 -0.10433,1.02655 -0.20866,2.05309 -0.31298,3.07964 0,0 0.78349,0.008 0.78349,0.008 v 0 c 0.093,-1.0272 0.18602,-2.05439 0.27903,-3.08159 0.43895,-6.02673 0.82888,-12.07043 0.65973,-18.11646 -0.0142,-0.39138 -0.0296,-0.78272 -0.0426,-1.17414 -0.0115,-0.34747 -0.0807,-0.74717 0.0503,-1.08628 0.14428,-0.35736 0.29029,-0.71406 0.44363,-1.06764 0,0 -0.98844,-0.0388 -0.98844,-0.0388 z" />
    <path
       style="fill:#000000;stroke-width:0.25;stroke-linecap:square;stroke-dasharray:none;paint-order:markers stroke fill"
       id="path2273"
       d="m 463.19404,757.56884 c -0.0562,2.55479 0.11473,5.10927 0.18435,7.6624 0.0298,1.09138 0.0474,2.18305 0.0711,3.27458 0.13973,9.43645 -0.46791,18.86115 -1.08776,28.27162 -0.18786,3.24253 -0.47776,6.47558 -0.83973,9.70252 0,0 0.82664,0.008 0.82664,0.008 v 0 c 0.29171,-3.23109 0.52125,-6.46628 0.68694,-9.70665 0.55794,-9.41663 1.19669,-18.8396 1.18481,-28.27712 -0.0126,-1.09178 -0.0224,-2.18359 -0.0378,-3.27534 -0.036,-2.54944 -0.15046,-5.10576 -0.005,-7.65357 0,0 -0.98375,-0.007 -0.98375,-0.007 z" />
    <path
       style="fill:#000000;stroke-width:0.25;stroke-linecap:square;stroke-dasharray:none;paint-order:markers stroke fill"
       id="path2275"
       d="m 459.44416,785.7856 c 0.0813,3.38018 0.15123,6.75997 0.17014,10.14116 -0.11314,8.45731 -0.34174,16.91371 -0.58634,25.36828 -0.0422,1.02875 -0.0844,2.05749 -0.12661,3.08623 0,0 0.78399,0.003 0.78399,0.003 v 0 c 0.0239,-1.02902 0.0478,-2.05803 0.0717,-3.08704 0.0409,-2.27994 0.10741,-6.15298 0.15994,-8.35334 0.13542,-5.67306 0.38684,-11.34264 0.48771,-17.01657 0.0254,-3.38146 -0.0113,-6.76249 0.0227,-10.14376 0,0 -0.98325,0.003 -0.98325,0.003 z" />
    <path
       style="fill:#000000;stroke-width:0.25;stroke-linecap:square;stroke-dasharray:none;paint-order:markers stroke fill"
       id="path2277"
       d="m 465.50669,809.81236 c -0.4762,2.7154 -0.35093,5.49436 -0.3376,8.23824 0.0734,7.00114 0.19449,14.00142 0.25802,21.0027 0.12012,8.33765 0.0142,16.67542 -0.43107,25.00212 0,0 0.77821,0.004 0.77821,0.004 v 0 c 0.31397,-8.33153 0.44204,-16.66867 0.35701,-25.00615 -0.0306,-7.00089 -0.12053,-14.00126 -0.12842,-21.00216 0.0173,-2.7343 -0.0794,-5.52026 0.49045,-8.21054 0,0 -0.9866,-0.0278 -0.9866,-0.0278 z" />
    <path
       style="fill:#000000;stroke-width:0.25;stroke-linecap:square;stroke-dasharray:none;paint-order:markers stroke fill"
       id="path2279"
       d="m 461.93748,822.60546 c -0.38957,2.70306 -0.29882,5.45507 -0.26454,8.17682 0.14697,8.63554 0.41512,17.26828 0.6886,25.90053 0.18235,6.01606 0.4478,12.02995 0.47486,18.04935 0,0 0.82645,-10e-4 0.82645,-10e-4 v 0 c -0.13939,-6.01913 -0.44037,-12.03275 -0.63042,-18.05035 -0.27858,-8.63043 -0.53747,-17.26283 -0.55442,-25.89855 0.0234,-2.71314 -0.0321,-5.46869 0.44778,-8.15009 0,0 -0.98831,-0.0266 -0.98831,-0.0266 z" />
    <path
       style="fill:#000000;stroke-width:0.25;stroke-linecap:square;stroke-dasharray:none;paint-order:markers stroke fill"
       id="path2281"
       d="m 460.86256,870.00626 c -0.32952,3.33637 -0.24607,6.7015 -0.26895,10.05018 -0.009,7.7227 -0.26761,15.44064 -0.62059,23.15425 -0.0529,1.04604 -0.10577,2.09209 -0.15866,3.13813 0,0 0.78028,0.003 0.78028,0.003 v 0 c 0.0367,-1.04613 0.0734,-2.09226 0.11009,-3.1384 0.29595,-7.7168 0.60337,-15.43358 0.69569,-23.15631 0.0614,-3.34372 4.9e-4,-6.7143 0.44138,-10.0352 0,0 -0.97924,-0.016 -0.97924,-0.016 z" />
    <path
       style="fill:#000000;stroke-width:0.25;stroke-linecap:square;stroke-dasharray:none;paint-order:markers stroke fill"
       id="path2283"
       d="m 466.49549,870.82692 c -0.92478,3.18153 -1.25564,6.50071 -1.62615,9.78085 -0.80097,8.63826 -1.33948,17.29828 -2.01863,25.94667 -0.34414,4.16944 -0.73747,8.33455 -1.11627,12.50091 0,0 0.74791,0.006 0.74791,0.006 v 0 c 0.32605,-4.16879 0.67665,-8.33541 1.02993,-12.50199 0.69155,-8.6491 1.24658,-17.31125 2.14137,-25.94251 0.41795,-3.2724 0.78466,-6.60234 1.82819,-9.74843 0,0 -0.98635,-0.0418 -0.98635,-0.0418 z" />
    <path
       style="fill:#000000;stroke-width:0.25;stroke-linecap:square;stroke-dasharray:none;paint-order:markers stroke fill"
       id="path2285"
       d="m 459.81779,920.71324 c 0.0828,0.41445 0.11436,0.5185 0.14801,0.98999 0.0624,0.87489 0.0657,1.83083 0.0559,2.69651 -0.0229,2.01081 -0.0838,3.09037 -0.16809,5.18495 -0.26958,5.11622 -0.53605,10.23212 -0.74701,15.35114 0,0 0.72983,0.003 0.72983,0.003 v 0 c 0.1942,-5.12084 0.461,-10.23744 0.81165,-15.35018 0.11231,-1.98648 0.19838,-3.25942 0.26085,-5.18813 0.0237,-0.73215 0.0475,-1.91993 0.0141,-2.70713 -0.0183,-0.4325 -0.0562,-0.61269 -0.11909,-1.00667 0,0 -0.9861,0.0266 -0.9861,0.0266 z" />
    <path
       style="fill:#000000;stroke-width:0.25;stroke-linecap:square;stroke-dasharray:none;paint-order:markers stroke fill"
       id="path2287"
       d="m 462.88425,935.68691 c -0.12333,3.91935 -0.0292,7.84262 0.0361,11.76222 0.22724,10.07961 0.2455,20.16205 0.40756,30.24258 0.021,1.40091 0.0421,2.80182 0.0631,4.20274 0,0 0.70598,-10e-4 0.70598,-10e-4 v 0 c -0.0352,-1.40087 -0.0705,-2.80173 -0.10569,-4.20259 -0.22383,-10.07942 -0.24575,-20.16074 -0.32914,-30.24201 -0.009,-3.91859 -0.0644,-7.84646 0.20928,-11.75821 0,0 -0.98717,-0.003 -0.98717,-0.003 z" />
    <path
       style="fill:#000000;stroke-width:0.25;stroke-linecap:square;stroke-dasharray:none;paint-order:markers stroke fill"
       id="path2289"
       d="m 460.66751,961.36747 c 0.10572,2.4642 0.21374,4.92849 0.32374,7.39257 0.33146,6.6524 0.0595,13.31144 0.003,19.96611 -0.0125,1.47809 -0.005,2.95627 -0.008,4.4344 0,0 0.68987,5e-5 0.68987,5e-5 v 0 c -1.8e-4,-1.4778 -0.0121,-2.95565 -5.4e-4,-4.4334 0.0523,-6.65654 0.36963,-13.31312 0.14848,-19.97013 -0.0654,-2.46235 -0.13902,-4.92528 -0.16913,-7.38822 0,0 -0.98766,-10e-4 -0.98766,-10e-4 z" />
    <path
       style="fill:#000000;stroke-width:0.25;stroke-linecap:square;stroke-dasharray:none;paint-order:markers stroke fill"
       id="path2291"
       d="m 465.09797,989.08851 c -0.0465,0.29812 -0.10601,0.59451 -0.13949,0.89438 -0.30941,2.77167 -0.33316,5.58221 -0.36183,8.36636 -0.036,3.49995 -0.002,5.80565 0.0237,9.34155 0.0648,4.4212 0.081,8.8424 0.0664,13.2639 0,0 0.73303,-2e-4 0.73303,-2e-4 v 0 c -0.0435,-4.4214 -0.10399,-8.8425 -0.14069,-13.264 -0.005,-3.4312 -0.0318,-5.9357 0.051,-9.33917 0.0676,-2.779 0.15058,-5.59658 0.56504,-8.3518 0.0447,-0.29727 0.11975,-0.58919 0.17962,-0.88378 0,0 -0.9768,-0.0272 -0.9768,-0.0272 z" />
    <path
       style="fill:#000000;stroke-width:0.25;stroke-linecap:square;stroke-dasharray:none;paint-order:markers stroke fill"
       id="path2293"
       d="m 461.73184,1003.01 c -0.0899,1.2334 -0.12478,1.5136 -0.13938,2.9358 -0.0225,2.1875 0.0505,4.5238 0.0913,6.6938 0.11232,5.9769 0.0792,4.0182 0.12777,10.2964 0.0367,5.8326 -0.0994,11.6634 -0.24457,17.4935 0,0 0.60586,0 0.60586,0 v 0 c 0.12382,-5.8311 0.23448,-11.6625 0.25851,-17.4952 -0.004,-10.9405 0.006,-0.1503 -0.0188,-10.2969 -0.005,-2.1558 -0.0289,-4.5135 0.05,-6.6889 0.0537,-1.4798 0.0936,-1.6651 0.23783,-2.9274 0,0 -0.96853,-0.013 -0.96853,-0.013 z" />
    <path
       style="fill:#000000;stroke-width:0.25;stroke-linecap:square;stroke-dasharray:none;paint-order:markers stroke fill"
       id="path2295"
       d="m 464.80633,1033.446 c -0.31294,3.1167 -0.38136,6.2528 -0.54939,9.3792 -0.0721,1.3418 -0.15594,2.6828 -0.23391,4.0242 -0.3782,5.892 -0.91457,11.7766 -1.74026,17.6238 -0.14964,1.0597 -0.32509,2.1156 -0.48763,3.1734 0,0 0.77554,0.011 0.77554,0.011 v 0 c 0.95107,-6.9091 1.68135,-13.8458 2.17027,-20.8038 0.53574,-7.5853 0.0541,-0.6624 0.4999,-7.3321 0.0992,-1.4839 0.18426,-2.8364 0.32632,-4.303 0.0902,-0.9311 0.10851,-1.006 0.22168,-1.7572 0,0 -0.98252,-0.016 -0.98252,-0.016 z" />
    <path
       style="fill:#000000;stroke-width:0.25;stroke-linecap:square;stroke-dasharray:none;paint-order:markers stroke fill"
       id="path2297"
       d="m 459.18193,1045.2052 c 0.18936,3.0271 0.43742,6.0509 0.65597,9.0764 0.42805,6.2204 0.3787,12.4579 0.50061,18.6879 0.0305,1.5594 0.0784,3.1183 0.11761,4.6775 0,0 0.67274,0 0.67274,0 v 0 c -0.0453,-1.5588 -0.10246,-3.1174 -0.13589,-4.6765 -0.13355,-6.2303 -0.0643,-12.466 -0.38213,-18.6917 -0.15623,-3.0283 -0.34325,-6.0551 -0.44038,-9.086 0,0 -0.98853,0.014 -0.98853,0.014 z" />
    <path
       style="fill:#000000;stroke-width:0.25;stroke-linecap:square;stroke-dasharray:none;paint-order:markers stroke fill"
       id="path2299"
       d="m 463.99115,1067.528 c -0.008,0.1714 -0.0215,0.3426 -0.0244,0.5142 -0.0139,0.8179 0.0147,1.7189 0.0194,2.523 0.0122,2.1131 0.0128,3.653 -0.0729,5.8192 -0.0537,1.3567 -0.14358,2.7117 -0.21538,4.0675 -0.45256,5.7943 -0.19947,2.8972 -0.75953,8.6912 0,0 0.69432,0.01 0.69432,0.01 v 0 c 0.56133,-5.7961 0.30134,-2.8982 0.78012,-8.6936 0.0898,-1.3565 0.19552,-2.712 0.26928,-4.0694 0.13341,-2.4555 0.16398,-4.911 0.21584,-7.3684 0.0195,-0.9236 0.0142,-0.7603 0.0788,-1.4756 0,0 -0.9855,-0.015 -0.9855,-0.015 z" />
    <path
       style="fill:#000000;stroke-width:0.25;stroke-linecap:square;stroke-dasharray:none;paint-order:markers stroke fill"
       id="path2301"
       d="m 462.22149,1040.9008 c 0.25437,2.4045 0.29034,4.8248 0.34065,7.2399 0,0 0.82578,0 0.82578,0 v 0 c -0.0297,-2.4167 -0.0509,-4.8345 -0.19104,-7.2481 0,0 -0.97539,0.01 -0.97539,0.01 z" />
    <path
       style="fill:#000000;stroke-width:0.25;stroke-linecap:square;stroke-dasharray:none;paint-order:markers stroke fill"
       id="path2303"
       d="m 459.54824,1086.2996 c 0.0551,2.7849 0.34165,5.5571 0.54028,8.3335 0.0921,1.287 0.17085,2.5748 0.25628,3.8622 0.29526,4.6877 0.28207,9.3836 0.26151,14.0775 0,0 0.66442,3e-4 0.66442,3e-4 v 0 c 0.0214,-4.6949 0.0324,-9.3908 -0.1966,-14.0821 -0.0666,-1.2878 -0.12785,-2.5758 -0.19974,-3.8633 -0.15487,-2.7735 -0.38625,-5.5476 -0.34313,-8.3281 0,0 -0.98302,0 -0.98302,0 z" />
    <path
       style="fill:#000000;stroke-width:0.25;stroke-linecap:square;stroke-dasharray:none;paint-order:markers stroke fill"
       id="path2305"
       d="m 464.04461,1099.7446 c 0.29288,2.9533 0.3647,5.9344 0.2329,8.8994 -0.0627,1.4108 -0.18626,2.8183 -0.27939,4.2275 -0.73223,7.8282 -2.13039,15.5722 -2.90332,23.3959 -0.46446,4.7015 -0.46069,5.703 -0.67846,10.2147 0,0 0.67255,0 0.67255,0 v 0 c 0.15744,-4.4652 0.13564,-5.5642 0.57546,-10.211 0.74154,-7.8346 2.18791,-15.576 3.03713,-23.3972 0.11546,-1.4102 0.2594,-2.8184 0.34636,-4.2307 0.1826,-2.9655 0.16529,-5.9463 -0.0214,-8.9108 0,0 -0.98187,0.01 -0.98187,0.01 z" />
    <path
       style="fill:#000000;stroke-width:0.25;stroke-linecap:square;stroke-dasharray:none;paint-order:markers stroke fill"
       id="path2307"
       d="m 460.38213,1116.9709 c 0.0932,3.858 -0.0492,7.7163 -0.2334,11.5693 0,0 0.82719,0 0.82719,0 v 0 c 0.16739,-3.8568 0.30832,-7.7146 0.3915,-11.5742 0,0 -0.98529,0 -0.98529,0 z" />
    <path
       style="fill:#000000;stroke-width:0.25;stroke-linecap:square;stroke-dasharray:none;paint-order:markers stroke fill"
       id="path2309"
       d="m 463.16185,1129.4144 c 0.56896,3.9528 0.67162,7.9497 0.79224,11.9351 0.0864,3.7411 0.20846,7.4811 0.33851,11.2209 0,0 0.72846,0 0.72846,0 v 0 c -0.12176,-3.7395 -0.2398,-7.4792 -0.29493,-11.2204 -0.0857,-3.9856 -0.15807,-7.977 -0.5857,-11.9442 0,0 -0.97858,0.011 -0.97858,0.011 z" />
    <path
       style="fill:#000000;stroke-width:0.25;stroke-linecap:square;stroke-dasharray:none;paint-order:markers stroke fill"
       id="path2311"
       d="m 460.29529,1152.1628 c 0.039,0.1857 0.087,0.3697 0.11709,0.557 0.14649,0.911 0.32353,2.5073 0.4073,3.3009 0.38958,3.6907 0.6544,7.386 0.90365,11.0885 0.29453,5.6722 0.17627,2.8944 0.36115,8.3331 0,0 0.72071,0 0.72071,0 v 0 c -0.21887,-5.4395 -0.092,-2.6611 -0.38461,-8.3348 -0.21816,-3.7004 -0.44542,-7.3979 -0.74621,-11.0927 -0.0566,-0.6947 -0.20361,-2.454 -0.30278,-3.3092 -0.0228,-0.1965 -0.0583,-0.3913 -0.0874,-0.587 0,0 -0.9889,0.047 -0.9889,0.047 z" />
    <path
       style="fill:#000000;stroke-width:0.25;stroke-linecap:square;stroke-dasharray:none;paint-order:markers stroke fill"
       id="path2313"
       d="m 459.80873,1161.7684 c -0.34291,1.0247 -0.22381,2.1329 -0.15245,3.1892 0.0445,0.6584 0.10222,1.3159 0.15334,1.9739 0.26497,3.0929 0.41159,6.1945 0.4364,9.2987 0.009,1.1192 -0.0129,2.2384 -0.0193,3.3575 0,0 0.7651,4e-4 0.7651,4e-4 v 0 c 0.0175,-4.2236 -0.013,-8.4472 -0.32054,-12.6624 -0.0367,-0.6572 -0.082,-1.314 -0.11022,-1.9716 -0.0449,-1.047 -0.12473,-2.1506 0.23758,-3.156 0,0 -0.98993,-0.03 -0.98993,-0.03 z" />
    <path
       style="fill:#000000;stroke-width:0.25;stroke-linecap:square;stroke-dasharray:none;paint-order:markers stroke fill"
       id="path2315"
       d="m 465.47958,1158.2284 c -0.004,0.4109 -0.0146,0.8218 -0.0111,1.2327 0.0267,3.1051 0.19793,6.208 0.34553,9.3089 0.34658,7.2812 0.0819,1.4628 0.40594,8.7386 0.0486,1.3253 0.0972,2.6507 0.14585,3.976 0,0 0.72166,0 0.72166,0 v 0 c -0.0577,-1.3254 -0.11549,-2.6508 -0.17323,-3.9762 -0.11703,-2.6221 -0.27765,-6.1159 -0.37601,-8.7384 -0.11618,-3.0977 -0.23825,-6.2026 -0.15586,-9.3032 0.0109,-0.4099 0.0428,-0.8189 0.0643,-1.2284 0,0 -0.96703,-0.01 -0.96703,-0.01 z" />
    <path
       style="fill:#000000;stroke-width:0.25;stroke-linecap:square;stroke-dasharray:none;paint-order:markers stroke fill"
       id="path2317"
       d="m 463.15495,1182.5639 c 0.34343,7.2843 -0.37139,14.5602 -1.03337,21.8052 -0.70193,7.1572 -0.37469,3.666 -0.98609,10.4731 0,0 0.65094,0.01 0.65094,0.01 v 0 c 0.56005,-6.8076 0.24925,-3.3164 0.94,-10.4729 0.7072,-7.2514 1.44803,-14.5169 1.39778,-21.8123 0,0 -0.96926,0 -0.96926,0 z" />
    <path
       style="fill:#000000;stroke-width:0.25;stroke-linecap:square;stroke-dasharray:none;paint-order:markers stroke fill"
       id="path2319"
       d="m 460.14637,1186.8253 c 0.20952,3.5955 0.21298,7.2008 0.26552,10.8013 0,0 0.82104,0 0.82104,0 v 0 c -0.0468,-3.6022 -0.036,-7.2048 -0.10375,-10.8066 0,0 -0.98281,0.01 -0.98281,0.01 z" />
    <path
       style="fill:#000000;stroke-width:0.25;stroke-linecap:square;stroke-dasharray:none;paint-order:markers stroke fill"
       id="path2325"
       d="m 468.08244,1192.6276 c -0.23397,3.0907 -0.26011,6.1916 -0.34636,9.2886 -0.12081,6.5388 -0.83845,13.0396 -1.52378,19.5367 -0.45995,4.8781 -0.25237,2.4115 -0.61959,7.4002 0,0 0.73491,0.01 0.73491,0.01 v 0 c 0.38137,-4.9868 0.16784,-2.521 0.63759,-7.3977 0.6949,-6.4997 1.41039,-13.0023 1.59677,-19.542 0.12013,-3.0959 0.1625,-6.2014 0.50166,-9.2837 0,0 -0.9812,-0.01 -0.9812,-0.01 z" />
    <path
       style="fill:#000000;stroke-width:0.25;stroke-linecap:square;stroke-dasharray:none;paint-order:markers stroke fill"
       id="path2327"
       d="m 459.9199,1223.8312 c -0.14029,2.4878 -0.30825,4.9738 -0.43771,7.4623 -0.0278,0.736 -0.0625,1.4718 -0.0832,2.2081 -0.0428,1.5235 -0.0598,3.0606 -0.0391,4.5846 0.0298,2.1952 0.14145,4.3894 0.22707,6.5828 0.15503,3.2935 0.0109,6.5888 0.003,9.8831 -0.002,0.6731 0.007,1.3462 0.0104,2.0193 0.0104,0.6326 0.0207,1.2651 0.0311,1.8976 0,0 0.81232,0 0.81232,0 v 0 c -0.0144,-0.6321 -0.0287,-1.2642 -0.0431,-1.8963 -0.0122,-3.9685 0.14908,-7.9382 -0.0246,-11.9053 -0.18808,-4.4531 -0.40398,-8.9135 -0.0948,-13.3677 0.1608,-2.4885 0.33891,-4.9781 0.62566,-7.4557 0,0 -0.98696,-0.011 -0.98696,-0.011 z" />
    <path
       style="fill:#000000;stroke-width:0.25;stroke-linecap:square;stroke-dasharray:none;paint-order:markers stroke fill"
       id="path2329"
       d="m 463.61025,1239.2476 c -0.0166,0.204 -0.0426,0.4074 -0.0497,0.6119 -0.0545,1.5586 0.0533,3.1374 0.13559,4.6912 0.1527,2.8826 0.20939,3.517 0.41874,6.5724 0.76947,10.3157 1.72389,20.6163 2.67651,30.9163 0.72354,7.4477 1.34715,14.9045 2.08358,22.3508 0,0 0.83459,-0.01 0.83459,-0.01 v 0 c -0.8136,-7.4415 -1.46278,-14.8992 -2.19642,-22.3489 -0.96217,-10.2959 -1.88343,-20.5969 -2.57946,-30.9148 -0.16062,-2.7471 -0.24522,-3.934 -0.34783,-6.5706 -0.0602,-1.5464 -0.14361,-3.129 -0.0555,-4.6787 0.0114,-0.2013 0.0432,-0.401 0.0648,-0.6015 0,0 -0.9849,-0.02 -0.9849,-0.02 z" />
    <path
       style="fill:#000000;stroke-width:0.25;stroke-linecap:square;stroke-dasharray:none;paint-order:markers stroke fill"
       id="path2331"
       d="m 460.41304,1269.4365 c 0.20855,1.0904 0.20246,0.9645 0.34736,2.3568 0.20053,1.9267 0.30692,3.6267 0.46801,5.5776 0.30546,3.6994 0.40232,4.6395 0.75363,8.4386 0.80014,7.9581 1.57272,15.9222 2.00591,23.9104 0.0842,1.5533 0.1407,3.108 0.21105,4.6619 0.21909,6.383 0.18406,12.7705 0.25719,19.1559 0,0 0.84626,0 0.84626,0 v 0 c -0.11864,-6.386 -0.0996,-12.7745 -0.3343,-19.1581 -0.0712,-1.5544 -0.12762,-3.1096 -0.21352,-4.6633 -0.44165,-7.9879 -1.22013,-15.9516 -1.9936,-23.9125 -0.38287,-4.3861 -0.38542,-4.2111 -0.68868,-8.4377 -0.10066,-1.4029 -0.26334,-4.0769 -0.38947,-5.5819 -0.11826,-1.4112 -0.11088,-1.2658 -0.28505,-2.3754 0,0 -0.98479,0.029 -0.98479,0.029 z" />
    <path
       style="fill:#000000;stroke-width:0.25;stroke-linecap:square;stroke-dasharray:none;paint-order:markers stroke fill"
       id="path2333"
       d="m 460.77806,1316.3775 c -0.0114,0.1737 -0.0313,0.3472 -0.0343,0.5213 -0.0282,1.6742 0.0862,3.355 0.11033,5.0284 0.0347,2.405 0.0228,4.4974 0.0212,6.9252 -0.003,1.41 -0.007,2.8199 -0.009,4.2299 -0.004,4.6032 0.002,9.2036 -0.12765,13.8056 -0.10587,3.7535 -0.1989,5.3623 -0.37457,9.0989 -0.29798,5.6793 -0.69829,11.3532 -0.91627,17.0367 -0.0916,2.3886 -0.15277,4.7783 -0.23301,7.1674 0,0 0.83049,0 0.83049,0 v 0 c 0.0693,-2.3888 0.12047,-4.7782 0.20423,-7.1666 0.19934,-5.6838 0.59821,-11.3573 0.89154,-17.0365 0.17093,-3.714 0.2636,-5.3706 0.36855,-9.1008 0.16912,-6.0111 0.12071,-12.0242 0.17604,-18.0368 0.0219,-2.1789 0.0546,-4.7232 0.0523,-6.927 -10e-4,-1.3224 -0.0388,-2.6445 -0.0392,-3.9669 -2.9e-4,-0.987 -0.003,-0.8212 0.067,-1.5707 0,0 -0.98808,-0.011 -0.98808,-0.011 z" />
    <path
       style="fill:#000000;stroke-width:0.25;stroke-linecap:square;stroke-dasharray:none;paint-order:markers stroke fill"
       id="path2335"
       d="m 469.00024,1317.3656 c 0.0729,4.4409 0.11561,8.8826 0.15304,13.3239 0.0482,8.8147 -0.10168,17.6288 -0.16821,26.443 -0.009,1.3711 -0.0148,2.7422 -0.0258,4.1133 -0.0216,2.6902 -0.0414,5.0626 -0.11535,7.7483 -0.0993,3.6042 -0.30458,7.2028 -0.4988,10.8026 -0.23479,4.683 -0.21042,9.3713 -0.15564,14.0577 0,0 0.84435,0 0.84435,0 v 0 c -0.084,-4.6844 -0.11559,-9.3712 0.13702,-14.0521 0.091,-1.7241 0.29057,-5.4093 0.36074,-7.1194 0.21254,-5.1802 0.23113,-10.365 0.23687,-15.5487 0.0497,-8.8148 0.19664,-17.6289 0.21069,-26.4439 -0.008,-4.4419 -0.0363,-8.8838 0.002,-13.3257 0,0 -0.98105,0 -0.98105,0 z" />
    <path
       style="fill:#000000;stroke-width:0.25;stroke-linecap:square;stroke-dasharray:none;paint-order:markers stroke fill"
       id="path2337"
       d="m 463.55149,1383.395 c -0.0408,0.1835 -0.0921,0.3649 -0.12233,0.5504 -0.29952,1.8372 -0.38352,3.7289 -0.49754,5.5819 -0.17804,2.8933 -0.26036,4.8519 -0.40266,7.8199 -0.52669,11.6782 -1.00289,23.3584 -1.65818,35.0303 -0.405,7.6394 -0.24045,3.8226 -0.49418,11.4504 0,0 0.71727,0 0.71727,0 v 0 c 0.25189,-7.6263 0.0897,-3.81 0.48714,-11.4489 0.63919,-11.6737 1.09326,-23.3563 1.7326,-35.03 0.17662,-3.0492 0.26682,-4.8605 0.48806,-7.8175 0.13826,-1.8478 0.25,-3.74 0.59947,-5.5657 0.035,-0.1829 0.0923,-0.3609 0.1384,-0.5414 0,0 -0.98805,-0.032 -0.98805,-0.032 z" />
    <path
       style="fill:#000000;stroke-width:0.25;stroke-linecap:square;stroke-dasharray:none;paint-order:markers stroke fill"
       id="path2339"
       d="m 466.26296,1413.5749 c 0.12922,5.0062 0.28466,10.0118 0.43933,15.0173 0.25052,10.9778 1.18723,21.9205 1.93448,32.8709 0.36528,5.3267 0.58189,10.6609 0.77494,15.9959 0,0 0.75302,0 0.75302,0 v 0 c -0.21437,-5.3353 -0.44945,-10.6699 -0.80861,-15.9979 -0.75077,-10.9481 -1.6917,-21.8898 -1.87049,-32.868 -0.10806,-5.0034 -0.24361,-10.0076 -0.23769,-15.0125 0,0 -0.98498,0 -0.98498,0 z" />
    <path
       style="fill:#000000;stroke-width:0.25;stroke-linecap:square;stroke-dasharray:none;paint-order:markers stroke fill"
       id="path2341"
       d="m 463.09291,1463.3717 c 0.0474,5.8478 0.13972,11.6945 0.29639,17.5405 0.28331,6.1818 0.1236,3.1676 0.47297,9.043 0,0 0.78727,0 0.78727,0 v 0 c -0.37999,-5.8729 -0.21249,-2.8597 -0.49388,-9.04 -0.12702,-5.8455 -0.19201,-11.6931 -0.0802,-17.5396 0,0 -0.98255,10e-4 -0.98255,10e-4 z" />
    <path
       style="fill:#000000;stroke-width:0.25;stroke-linecap:square;stroke-dasharray:none;paint-order:markers stroke fill"
       id="path2343"
       d="m 467.52372,1486.694 c -0.0842,4.7919 -0.5554,9.5719 -0.89458,14.3508 -0.78321,10.8382 -0.82077,21.7057 -0.95392,32.5649 0,0 0.69128,7e-4 0.69128,7e-4 v 0 c 0.0913,-10.8589 0.10652,-21.7298 1.02442,-32.5597 0.39871,-4.7825 0.91714,-9.561 1.12101,-14.3567 0,0 -0.98821,0 -0.98821,0 z" />
    <path
       style="fill:#000000;stroke-width:0.25;stroke-linecap:square;stroke-dasharray:none;paint-order:markers stroke fill"
       id="path2345"
       d="m 462.13409,1511.4279 c -0.0153,0.2829 -0.0423,0.5655 -0.0459,0.8488 -0.0294,2.3345 0.13205,4.6759 0.17844,7.0091 0.0557,2.801 0.0711,5.8259 0.0939,8.6121 0.0323,8.6116 0.33343,17.2207 1.29923,25.7828 0.27162,2.408 0.62853,4.8056 0.9428,7.2084 0,0 0.64044,-0.01 0.64044,-0.01 v 0 c -0.31448,-2.402 -0.67552,-4.7984 -0.94344,-7.206 -0.95258,-8.5602 -1.19976,-17.1698 -1.17293,-25.7772 0.002,-2.5873 0.0113,-5.9756 -0.0129,-8.6136 -0.0214,-2.3284 -0.15504,-4.6719 -0.0674,-7.0007 0.0106,-0.2803 0.0472,-0.5591 0.0708,-0.8387 0,0 -0.98311,-0.017 -0.98311,-0.017 z" />
    <path
       style="fill:#000000;stroke-width:0.25;stroke-linecap:square;stroke-dasharray:none;paint-order:markers stroke fill"
       id="path2347"
       d="m 468.85943,1543.4312 c 0.12131,6.4628 0.10769,12.9269 0.12462,19.3906 0.007,7.27 0.2064,14.5347 0.50763,21.7976 0,0 0.7585,0 0.7585,0 v 0 c -0.336,-7.2604 -0.57117,-14.5247 -0.53923,-21.7943 0.0276,-6.4631 0.079,-12.9262 0.126,-19.3891 0,0 -0.97752,0 -0.97752,0 z" />
    <path
       style="fill:#000000;stroke-width:0.25;stroke-linecap:square;stroke-dasharray:none;paint-order:markers stroke fill"
       id="path2349"
       d="m 461.80129,1566.5677 c -0.25101,4.1065 -0.48933,8.2134 -0.77023,12.3179 -0.96897,11.3522 -2.1442,22.6855 -3.15105,34.0346 -0.588,7.6476 -0.32883,3.8941 -0.78403,11.2601 0,0 0.73167,0 0.73167,0 v 0 c 0.42592,-7.3648 0.17999,-3.6119 0.74472,-11.2584 0.98598,-11.3557 2.20079,-22.688 3.27905,-34.0348 0.31629,-4.1052 0.57998,-8.2147 0.93952,-12.3163 0,0 -0.98965,-0.01 -0.98965,-0.01 z" />
    <path
       style="fill:#000000;stroke-width:0.25;stroke-linecap:square;stroke-dasharray:none;paint-order:markers stroke fill"
       id="path2351"
       d="m 464.34698,1595.0567 c 0.0153,6.619 -0.038,13.2367 0.0255,19.8558 0.26441,11.8304 0.40399,23.6613 0.21122,35.4935 0,0 0.7386,10e-4 0.7386,10e-4 v 0 c 0.14066,-11.8328 -0.0187,-23.6635 -0.21876,-35.495 -0.0224,-6.6196 0.053,-13.2369 0.2247,-19.8544 0,0 -0.98121,-9e-4 -0.98121,-9e-4 z" />
    <path
       style="fill:#000000;stroke-width:0.25;stroke-linecap:square;stroke-dasharray:none;paint-order:markers stroke fill"
       id="path2353"
       d="m 462.54195,1652.4434 c -0.59173,3.3946 -0.41281,6.8826 -0.37829,10.3125 0.10888,6.5404 -0.11333,13.0791 -0.33395,19.6147 0,0 0.80363,0 0.80363,0 v 0 c 0.20583,-6.5373 0.43466,-13.0759 0.38108,-19.6178 -0.009,-3.4231 -0.16426,-6.9184 0.51739,-10.2922 0,0 -0.98986,-0.02 -0.98986,-0.02 z" />
    <path
       style="fill:#000000;stroke-width:0.25;stroke-linecap:square;stroke-dasharray:none;paint-order:markers stroke fill"
       id="path2355"
       d="m 468.48766,1670.1862 c -0.41312,3.2524 -0.81141,6.5055 -1.26977,9.7522 -0.74904,5.0665 -1.55779,10.1239 -2.34109,15.1851 0,0 0.80654,0.012 0.80654,0.012 v 0 c 0.77123,-5.0659 1.58884,-10.1241 2.39189,-15.1849 0.48758,-3.2462 0.90577,-6.502 1.40147,-9.7465 0,0 -0.98904,-0.018 -0.98904,-0.018 z" />
    <path
       style="fill:#000000;stroke-width:0.25;stroke-linecap:square;stroke-dasharray:none;paint-order:markers stroke fill"
       id="path2369"
       d="m 468.09218,973.02705 c 0.4994,5.11119 0.61605,10.24713 0.67632,15.37881 -0.007,1.15691 -0.0133,2.31382 -0.0199,3.47073 0,0 0.0414,3e-5 0.0414,3e-5 v 0 c 0.006,-1.15694 0.0129,-2.31387 0.0194,-3.4708 -0.0596,-5.1318 -0.17598,-10.26754 -0.66817,-15.37942 0,0 -0.0491,6.5e-4 -0.0491,6.5e-4 z" />
    <path
       style="fill:#000000;stroke-width:0.25;stroke-linecap:square;stroke-dasharray:none;paint-order:markers stroke fill"
       id="path2371"
       d="m 468.51005,1012.1535 c 0.32242,7.3617 0.36539,14.7317 0.42245,22.099 0.005,1.7769 0.0103,3.5537 0.0155,5.3305 0,0 0.73635,-2e-4 0.73635,-2e-4 v 0 c -0.007,-1.7769 -0.0137,-3.5538 -0.0206,-5.3307 -0.0373,-7.3676 -0.0726,-14.7352 -0.17484,-22.1022 0,0 -0.97884,0 -0.97884,0 z" />
    <path
       style="fill:#000000;stroke-width:0.25;stroke-linecap:square;stroke-dasharray:none;paint-order:markers stroke fill"
       id="path2373"
       d="m 467.60976,906.06238 c -0.0461,3.73746 0.0839,7.47328 0.20028,11.20825 0.16664,7.1022 0.52884,14.19676 0.84586,21.29309 0.1703,3.50532 0.22935,7.01272 0.25686,10.52138 0,0 0.82953,-7.1e-4 0.82953,-7.1e-4 v 0 c -0.0321,-3.50957 -0.0961,-7.01781 -0.25549,-10.52444 -0.32683,-7.09524 -0.70794,-14.18872 -0.83184,-21.29162 -0.0869,-3.73307 -0.19735,-7.46949 -0.0588,-11.20283 0,0 -0.98639,-0.003 -0.98639,-0.003 z" />
    <path
       style="fill:#000000;stroke-width:0.25;stroke-linecap:square;stroke-dasharray:none;paint-order:markers stroke fill"
       id="path2375"
       d="m 465.07037,925.79262 c 0.38799,4.29258 0.89812,8.57264 1.39268,12.85389 0.97849,8.4754 1.8122,16.96606 2.43016,25.47528 0.0874,1.4586 0.17481,2.9172 0.26221,4.37581 0,0 0.78314,-0.005 0.78314,-0.005 v 0 c -0.0919,-1.45886 -0.18383,-2.91772 -0.27575,-4.37658 -0.6168,-8.50837 -1.42373,-17.00042 -2.36593,-25.47904 -0.46835,-4.27887 -0.96112,-8.5577 -1.24582,-12.85376 0,0 -0.98069,0.009 -0.98069,0.009 z" />
    <path
       style="fill:#000000;stroke-width:0.25;stroke-linecap:square;stroke-dasharray:none;paint-order:markers stroke fill"
       id="path2377"
       d="m 469.98968,855.59386 c 0.35896,5.11246 0.51449,10.23064 0.5896,15.35428 0.0874,6.76857 -0.11566,13.5338 -0.40382,20.29496 0,0 0.75118,0.003 0.75118,0.003 v 0 c 0.27237,-6.76305 0.47334,-13.5293 0.44553,-20.29891 -0.0215,-3.29496 -0.01,-4.51304 -0.0998,-7.68657 -0.0625,-2.1968 -0.20439,-4.38942 -0.28082,-6.58546 -0.0125,-0.3606 -0.0158,-0.72145 -0.0237,-1.08218 0,0 -0.97815,7.7e-4 -0.97815,7.7e-4 z" />
    <path
       style="fill:#000000;stroke-width:0.25;stroke-linecap:square;stroke-dasharray:none;paint-order:markers stroke fill"
       id="path2379"
       d="m 469.92952,791.67178 c -0.24231,6.68856 -0.54536,13.37413 -0.74669,20.06435 -0.0233,1.8043 -0.0466,3.6086 -0.07,5.4129 0,0 0.73229,9.9e-4 0.73229,9.9e-4 v 0 c 0.0254,-1.80383 0.0507,-3.60766 0.076,-5.41149 0.23454,-6.69271 0.55696,-13.38065 0.98872,-20.06373 0,0 -0.98041,-0.003 -0.98041,-0.003 z" />
    <path
       style="fill:#000000;stroke-width:0.25;stroke-linecap:square;stroke-dasharray:none;paint-order:markers stroke fill"
       id="path2381"
       d="m 468.83901,740.7375 c -0.16523,0.68315 -0.17996,0.68099 -0.285,1.5501 -0.19287,1.59566 -0.31812,3.40601 -0.41926,4.97338 -0.25789,3.9968 -0.32617,5.92037 -0.52444,10.1455 -0.34995,7.49818 -0.61877,15.00301 -0.6778,22.50984 -0.0208,2.6507 0.0113,5.30155 0.0169,7.95232 0,0 0.60672,-1.3e-4 0.60672,-1.3e-4 v 0 c -0.005,-2.65035 -0.039,-5.3008 -0.0165,-7.95107 0.064,-7.50765 0.36401,-15.01158 0.78067,-22.50716 0.224,-3.72441 0.3685,-6.51413 0.66124,-10.14229 0.12567,-1.55763 0.29128,-3.37853 0.52069,-4.96463 0.12444,-0.86039 0.14029,-0.85995 0.32399,-1.53242 0,0 -0.98727,-0.0334 -0.98727,-0.0334 z" />
    <path
       style="fill:#000000;stroke-width:0.25;stroke-linecap:square;stroke-dasharray:none;paint-order:markers stroke fill"
       id="path2383"
       d="m 471.27155,676.87176 c -1.11144,4.17389 -1.03004,8.56773 -1.09537,12.85251 -0.0102,9.75348 0.57892,19.49406 0.97561,29.23629 0.21809,6.69889 0.13356,3.42058 0.25917,9.83477 0,0 0.76731,-0.002 0.76731,-0.002 v 0 c -0.15463,-6.41503 -0.0614,-3.13629 -0.28374,-9.83613 -0.39655,-9.73964 -0.97803,-19.48042 -0.90208,-29.23162 0.10602,-4.27396 0.0504,-8.67897 1.26052,-12.81908 0,0 -0.98142,-0.0351 -0.98142,-0.0351 z" />
    <path
       style="fill:#000000;stroke-width:0.25;stroke-linecap:square;stroke-dasharray:none;paint-order:markers stroke fill"
       id="path2385"
       d="m 472.58477,610.22068 c -0.0704,5.81274 0.0311,11.62675 0.12121,17.4388 0.0818,6.46066 0.34261,12.919 0.31376,19.38108 -0.0187,4.1926 -0.0857,5.17343 -0.23419,9.30922 -0.28696,5.37218 -0.13217,2.76856 -0.45884,7.81117 0,0 0.81861,0.005 0.81861,0.005 v 0 c 0.29328,-5.04428 0.1532,-2.43985 0.4157,-7.81351 0.13767,-4.12917 0.20077,-5.12719 0.21633,-9.31236 0.024,-6.46194 -0.22758,-12.92073 -0.29438,-19.38164 -0.062,-5.80905 -0.14825,-11.62471 0.0833,-17.43094 0,0 -0.98146,-0.007 -0.98146,-0.007 z" />
    <path
       style="fill:#000000;stroke-width:0.25;stroke-linecap:square;stroke-dasharray:none;paint-order:markers stroke fill"
       id="path2387"
       d="m 469.15227,571.48724 c -0.27586,7.8825 -0.30892,15.77161 -0.32466,23.65814 0.0538,8.80515 0.0167,4.4038 0.11142,13.20405 0,0 0.67363,-7.3e-4 0.67363,-7.3e-4 v 0 c -0.0952,-8.79959 -0.0643,-4.39859 -0.0926,-13.20299 0.0591,-7.88425 0.11619,-15.77794 0.6084,-23.64927 0,0 -0.97619,-0.009 -0.97619,-0.009 z" />
    <path
       style="fill:#000000;stroke-width:0.25;stroke-linecap:square;stroke-dasharray:none;paint-order:markers stroke fill"
       id="path2389"
       d="m 472.34703,527.93828 c 0.36636,5.74043 0.66494,11.48592 0.97584,17.22978 0.58559,9.96114 0.7974,19.9366 0.92591,29.9122 0,0 0.71992,-10e-4 0.71992,-10e-4 v 0 c -0.15984,-9.97541 -0.3939,-19.94993 -0.89759,-29.91489 -0.26169,-5.74479 -0.53179,-11.48939 -0.73891,-17.23639 0,0 -0.98517,0.0103 -0.98517,0.0103 z" />
    <path
       style="fill:#000000;stroke-width:0.25;stroke-linecap:square;stroke-dasharray:none;paint-order:markers stroke fill"
       id="path2391"
       d="m 472.68036,489.31744 c -0.7002,9.48283 -1.52364,18.9559 -2.29229,28.43332 -0.1627,2.33662 -0.3254,4.67325 -0.4881,7.00987 0,0 0.65246,0.005 0.65246,0.005 v 0 c 0.16257,-2.33635 0.32513,-4.67269 0.48769,-7.00904 0.79876,-9.48191 1.62544,-18.96295 2.61404,-28.42712 0,0 -0.9738,-0.0116 -0.9738,-0.0116 z" />
    <path
       style="fill:#000000;stroke-width:0.25;stroke-linecap:square;stroke-dasharray:none;paint-order:markers stroke fill"
       id="path2393"
       d="m 471.67391,439.50484 c -0.13736,3.1175 0.0494,6.24557 0.16164,9.36174 0.32161,7.6939 0.82476,15.37805 1.40912,23.05589 0,0 0.75758,-0.006 0.75758,-0.006 v 0 c -0.5878,-7.67486 -1.09614,-15.35713 -1.31557,-23.05274 -0.0802,-3.11095 -0.22853,-6.23774 -0.0253,-9.34612 0,0 -0.98747,-0.013 -0.98747,-0.013 z" />
    <path
       style="fill:#000000;stroke-width:0.25;stroke-linecap:square;stroke-dasharray:none;paint-order:markers stroke fill"
       id="path2395"
       d="m 480.86173,445.18015 c 0.71536,4.50637 0.81164,9.1007 0.98637,13.6529 0.31361,12.01558 -0.46652,24.01917 -1.07676,36.01244 -0.0704,1.84563 -0.14075,3.69126 -0.21113,5.53689 0,0 0.72599,0.003 0.72599,0.003 v 0 c 0.0629,-1.84534 0.12582,-3.69069 0.18873,-5.53603 0.57692,-11.99787 1.35666,-23.99997 1.16089,-36.01853 -0.12753,-4.55876 -0.19321,-9.14775 -0.78559,-13.67485 0,0 -0.9885,0.0246 -0.9885,0.0246 z" />
    <path
       style="fill:#000000;stroke-width:0.25;stroke-linecap:square;stroke-dasharray:none;paint-order:markers stroke fill"
       id="path2397"
       d="m 487.06745,436.51149 c 0.15685,0.61568 0.16336,0.58441 0.26599,1.36827 0.15192,1.16029 0.23828,2.29443 0.3299,3.46389 0.15079,1.92459 0.28967,3.85011 0.43727,5.77496 0.43073,4.64473 0.75494,9.2963 1.05149,13.95108 0,0 0.74154,-0.005 0.74154,-0.005 v 0 c -0.27244,-4.65437 -0.58243,-9.30467 -0.9496,-13.95266 -0.20998,-3.07816 -0.31983,-6.17876 -0.65606,-9.24704 -0.0863,-0.78741 -0.094,-0.76372 -0.23079,-1.39028 0,0 -0.98974,0.0363 -0.98974,0.0363 z" />
    <path
       style="fill:#000000;stroke-width:0.25;stroke-linecap:square;stroke-dasharray:none;paint-order:markers stroke fill"
       id="path2399"
       d="m 488.30847,483.85048 c -0.17144,-0.55077 -0.45606,-2.3387 -1.46178,-0.53931 -0.22066,0.3948 -0.0227,0.90427 -0.0341,1.3564 0.0684,10.13105 0.64418,20.25155 1.3116,30.35804 0.70615,8.99813 0.35446,4.58483 1.05388,13.23998 0,0 0.68419,-0.006 0.68419,-0.006 v 0 c -0.73382,-8.65363 -0.37286,-4.24085 -1.07972,-13.23859 -0.64361,-10.1016 -1.19766,-20.22375 -1.03685,-30.35011 0.0241,-0.4489 0.25355,-0.93527 0.0724,-1.34672 -0.14112,-0.32056 -0.59901,-0.36327 -0.90231,-0.53843 -0.0341,-0.0197 0.0764,0.0364 0.094,0.0716 0.0386,0.0769 0.19229,0.63784 0.20922,0.69567 0.0324,0.11078 0.0669,0.22096 0.10034,0.33144 0,0 0.98904,-0.0343 0.98904,-0.0343 z" />
    <path
       style="fill:#000000;stroke-width:0.25;stroke-linecap:square;stroke-dasharray:none;paint-order:markers stroke fill"
       id="path2401"
       d="m 479.72938,506.25697 c 0.52091,9.33901 0.57892,18.69836 0.79276,28.04811 0.0746,2.3044 0.14919,4.6088 0.22379,6.9132 0,0 0.65791,-0.002 0.65791,-0.002 v 0 c -0.0756,-2.30416 -0.15111,-4.60832 -0.22667,-6.91248 -0.19214,-9.35131 -0.22432,-18.70509 -0.47615,-28.05496 0,0 -0.97164,0.008 -0.97164,0.008 z" />
    <path
       style="fill:#000000;stroke-width:0.25;stroke-linecap:square;stroke-dasharray:none;paint-order:markers stroke fill"
       id="path2403"
       d="m 488.50907,531.7105 c -0.62531,1.48835 -1.26544,2.99127 -1.74588,4.53512 -0.16182,0.52 -0.2893,1.05007 -0.43395,1.5751 -0.12731,0.66308 -0.27596,1.32242 -0.38194,1.98924 -0.51414,3.23516 -0.73414,6.52266 -1.03529,9.78117 -0.53664,5.80676 -0.41719,4.50216 -1.0078,10.65205 -0.84677,8.94853 -0.42235,4.3201 -1.26755,13.88582 0,0 0.63228,0.006 0.63228,0.006 v 0 c 0.90411,-9.56477 0.45169,-4.93678 1.35174,-13.8845 0.36944,-3.5996 0.72498,-7.05813 1.09171,-10.65142 0.3323,-3.256 0.58674,-6.54122 1.13465,-9.77137 0.11271,-0.66447 0.26743,-1.32112 0.40114,-1.98168 0.14851,-0.52273 0.28029,-1.05052 0.44554,-1.56821 0.49122,-1.53881 1.13337,-3.04339 1.80023,-4.5117 0,0 -0.98488,-0.0554 -0.98488,-0.0554 z" />
    <path
       style="fill:#000000;stroke-width:0.25;stroke-linecap:square;stroke-dasharray:none;paint-order:markers stroke fill"
       id="path2405"
       d="m 480.12362,568.77641 c 0.13098,6.68737 0.0594,13.37746 0.0733,20.06586 -0.0105,8.69628 0.33902,17.3889 0.34463,26.08489 0.003,4.95631 -0.0484,5.30655 -0.21688,9.93953 0,0 0.78061,0.002 0.78061,0.002 v 0 c 0.11387,-4.66646 0.15247,-4.94722 0.12438,-9.94269 -0.0489,-8.69518 -0.37894,-17.38769 -0.3122,-26.08396 0.0391,-6.6899 0.14397,-13.37882 0.18384,-20.06863 0,0 -0.97766,0.003 -0.97766,0.003 z" />
    <path
       style="fill:#000000;stroke-width:0.25;stroke-linecap:square;stroke-dasharray:none;paint-order:markers stroke fill"
       id="path2407"
       d="m 488.57103,576.2677 c -0.14636,-0.91163 -0.1177,-1.85261 -0.31327,-2.75594 -0.35499,0.0426 -0.80677,-0.11938 -1.06496,0.12795 -0.23165,0.2219 -0.0556,0.63932 -0.0705,0.95975 -0.027,0.58114 -0.044,1.16277 -0.0553,1.74443 -0.0698,3.59718 -0.0577,7.19756 -0.0731,10.79513 -0.0219,11.64776 0.21595,23.29343 0.22074,34.94105 -0.0327,9.73141 -0.42462,19.46005 -1.17756,29.16171 0,0 0.79693,0.006 0.79693,0.006 v 0 c 0.69471,-9.70638 1.10028,-19.43514 1.09898,-29.16777 -0.035,-11.64688 -0.28081,-23.29305 -0.16354,-34.94021 0.0515,-3.5963 0.0726,-7.19737 0.21131,-10.79192 0.0224,-0.5802 0.0506,-1.16037 0.0948,-1.73932 0.0235,-0.30782 0.29346,-0.67289 0.10816,-0.9198 -0.18533,-0.24695 -0.60899,-0.10222 -0.91349,-0.15333 0.24194,0.88835 0.17313,1.84148 0.31328,2.74754 0,0 0.98755,-0.0152 0.98755,-0.0152 z" />
    <path
       style="fill:#000000;stroke-width:0.25;stroke-linecap:square;stroke-dasharray:none;paint-order:markers stroke fill"
       id="path2409"
       d="m 478.03544,639.10683 c -0.75762,6.26596 -0.91162,12.57815 -1.06502,18.88109 -0.12733,13.66183 -0.77834,27.30935 -1.28994,40.95997 -0.0675,2.20915 -0.13491,4.41829 -0.20237,6.62743 0,0 0.67209,0.002 0.67209,0.002 v 0 c 0.057,-2.20899 0.11404,-4.41798 0.17106,-6.62698 0.4856,-13.65284 1.19318,-27.29839 1.39588,-40.96022 0.20094,-6.30322 0.37988,-12.6238 1.29314,-18.87382 0,0 -0.97484,-0.009 -0.97484,-0.009 z" />
    <path
       style="fill:#000000;stroke-width:0.25;stroke-linecap:square;stroke-dasharray:none;paint-order:markers stroke fill"
       id="path2411"
       d="m 485.42865,658.4433 c -1.06117,8.46329 -1.211,17.01418 -1.44095,25.53057 -0.17164,11.52898 -0.40539,23.05815 -0.48689,34.58833 -0.0453,6.41194 -0.0142,10.02358 0.0107,16.39251 0,0 0.60403,-3e-4 0.60403,-3e-4 v 0 c -0.10638,-16.99447 0.0804,-33.98878 0.49819,-50.97858 0.30303,-8.51432 0.51026,-17.07743 1.78757,-25.51489 0,0 -0.97267,-0.0176 -0.97267,-0.0176 z" />
    <path
       style="fill:#000000;stroke-width:0.25;stroke-linecap:square;stroke-dasharray:none;paint-order:markers stroke fill"
       id="path2413"
       d="m 478.68872,711.93539 c -0.12995,0.91283 -0.14181,0.85905 -0.17219,2.02193 -0.0444,1.69887 -0.005,4.12555 0.0151,5.72426 0.047,3.77006 0.0903,6.0133 0.15673,9.90857 0.24743,14.14024 0.62872,28.27754 0.76649,42.41949 -0.0427,8.52113 0.0224,4.40325 -0.17791,12.35389 0,0 0.71551,0.002 0.71551,0.002 v 0 c 0.14199,-7.9526 0.10113,-3.83394 0.10806,-12.35612 -0.16324,-14.14101 -0.53536,-28.27843 -0.68622,-42.41966 -0.0165,-2.51501 -0.0532,-7.22594 -0.0515,-9.90789 10e-4,-1.67033 0.003,-3.97223 0.0871,-5.71766 0.0557,-1.15183 0.0679,-1.10281 0.22477,-2.00187 0,0 -0.98603,-0.0265 -0.98603,-0.0265 z" />
    <path
       style="fill:#000000;stroke-width:0.25;stroke-linecap:square;stroke-dasharray:none;paint-order:markers stroke fill"
       id="path2415"
       d="m 486.81647,711.50042 c -0.093,3.49625 -0.0297,6.98936 0.0996,10.48365 0.39225,8.23078 0.91038,16.45497 1.39487,24.68068 0.0879,1.50917 0.17572,3.01834 0.26358,4.52751 0,0 0.77567,-0.005 0.77567,-0.005 v 0 c -0.0911,-1.50914 -0.18222,-3.01827 -0.27334,-4.52741 -0.48116,-8.22362 -0.96284,-16.44805 -1.29953,-24.67909 -0.10615,-3.49268 -0.15255,-6.98484 0.0231,-10.47653 0,0 -0.98394,-0.004 -0.98394,-0.004 z" />
    <path
       style="fill:#000000;stroke-width:0.25;stroke-linecap:square;stroke-dasharray:none;paint-order:markers stroke fill"
       id="path2417"
       d="m 487.40897,771.69177 c 0.0281,-0.35439 0.0902,-0.705 0.1588,-1.05342 0.018,-0.0911 0.14761,-0.29549 0.0575,-0.27269 -1.34852,0.34134 -1.04152,0.50193 -1.20964,1.69986 -1.39686,10.42963 -1.53197,20.98053 -1.87067,31.48336 -0.27661,9.17596 -0.65357,18.3484 -1.0509,27.51978 0,0 0.70126,0.003 0.70126,0.003 v 0 c 0.33929,-9.17303 0.69398,-18.34558 0.97934,-27.52051 0.36015,-10.50321 0.54373,-21.07002 2.18188,-31.47109 0.0658,-0.39335 0.3499,-0.81153 0.19745,-1.18006 -0.13625,-0.32938 -0.57226,-0.45501 -0.91472,-0.55387 -0.0895,-0.0258 -0.036,0.18287 -0.0533,0.27445 -0.0663,0.35266 -0.13067,0.70618 -0.16744,1.0634 0,0 0.99035,0.008 0.99035,0.008 z" />
    <path
       style="fill:#000000;stroke-width:0.25;stroke-linecap:square;stroke-dasharray:none;paint-order:markers stroke fill"
       id="path2419"
       d="m 475.27477,776.36687 c 0.11825,7.41999 0.37163,14.83712 0.61109,22.25394 0.31427,11.24503 0.95473,22.4834 0.99135,33.73532 0.006,1.87521 -0.0282,3.75033 -0.0424,5.62549 0,0 0.72173,3.2e-4 0.72173,3.2e-4 v 0 c 0.003,-1.87561 0.0234,-3.75127 0.008,-5.62682 -0.0907,-11.25119 -0.71884,-22.48939 -0.98497,-33.73631 -0.18868,-7.41518 -0.40765,-14.83362 -0.32787,-22.25194 0,0 -0.97728,0 -0.97728,0 z" />
    <path
       style="fill:#000000;stroke-width:0.25;stroke-linecap:square;stroke-dasharray:none;paint-order:markers stroke fill"
       id="path2421"
       d="m 471.68792,826.73012 c 0.80699,5.4175 1.75806,10.8133 2.67101,16.21378 1.33397,8.07635 0.6732,3.92801 1.9746,12.44626 0,0 0.67237,-0.01 0.67237,-0.01 v 0 c -1.25957,-8.5189 -0.62464,-4.36975 -1.89862,-12.4484 -0.85795,-5.39636 -1.76367,-10.79011 -2.43439,-16.21353 0,0 -0.98497,0.0119 -0.98497,0.0119 z" />
    <path
       style="fill:#000000;stroke-width:0.25;stroke-linecap:square;stroke-dasharray:none;paint-order:markers stroke fill"
       id="path2423"
       d="m 481.95239,834.34773 c -0.13476,7.31966 -0.3823,14.63505 -0.68148,21.94975 -0.69333,13.97613 -1.08709,27.96323 -1.38697,41.95244 -0.14529,7.91486 -0.0826,4.03168 -0.18987,11.64949 0,0 0.72293,8.7e-4 0.72293,8.7e-4 v 0 c 0.0772,-7.61742 0.0286,-3.73442 0.14788,-11.64899 0.2618,-13.98954 0.62181,-27.97799 1.38398,-41.95077 0.35794,-7.31472 0.65401,-14.63182 0.98274,-21.94752 0,0 -0.97921,-0.005 -0.97921,-0.005 z" />
    <path
       style="fill:#000000;stroke-width:0.25;stroke-linecap:square;stroke-dasharray:none;paint-order:markers stroke fill"
       id="path2425"
       d="m 474.48468,898.31464 c -0.83853,4.5909 -1.0464,9.2732 -1.29941,13.92364 -0.56242,12.82849 -0.34753,25.67384 -0.29031,38.50994 -0.008,2.08185 -0.017,4.1637 -0.0254,6.24555 0,0 0.69108,2.2e-4 0.69108,2.2e-4 v 0 c 0.005,-2.08205 0.01,-4.16411 0.0148,-6.24617 -0.093,-12.8345 -0.30039,-25.68173 0.38108,-38.50488 0.30902,-4.64667 0.55217,-9.33599 1.51702,-13.90455 0,0 -0.98887,-0.0237 -0.98887,-0.0237 z" />
    <path
       style="fill:#000000;stroke-width:0.25;stroke-linecap:square;stroke-dasharray:none;paint-order:markers stroke fill"
       id="path2427"
       d="m 485.42871,863.11385 c -0.51781,5.29325 -0.60848,10.62171 -0.78161,15.9347 -0.36574,10.23192 -0.66118,20.46737 -0.59203,30.70702 0.0156,2.30424 0.0624,4.60817 0.0935,6.91225 0.23769,9.22387 0.2338,18.4494 0.15635,27.67501 0,0 0.65934,5.5e-4 0.65934,5.5e-4 v 0 c 0.0779,-9.22595 0.0746,-18.45213 -0.15757,-27.67639 -0.0686,-5.87536 -0.11912,-7.73901 -0.0755,-13.56423 0.0601,-8.0214 0.35724,-16.03741 0.68948,-24.05136 0.21813,-5.30929 0.32659,-10.64536 0.99558,-15.92156 0,0 -0.98761,-0.016 -0.98761,-0.016 z" />
    <path
       style="fill:#000000;stroke-width:0.25;stroke-linecap:square;stroke-dasharray:none;paint-order:markers stroke fill"
       id="path2429"
       d="m 479.16578,929.50546 c -0.0533,0.66115 -0.0761,0.81995 -0.075,1.58526 0.002,1.28686 0.0884,3.34717 0.14122,4.50175 0.0406,0.88684 0.46996,9.24777 0.47791,9.4031 0.83021,14.70296 1.0444,29.42656 1.22546,44.14831 0.0443,2.19916 0.0887,4.39831 0.133,6.59747 0,0 0.67363,-0.002 0.67363,-0.002 v 0 c -0.0543,-2.19895 -0.10851,-4.39789 -0.16277,-6.59684 -0.22233,-14.72065 -0.45856,-29.44212 -1.13467,-44.15074 -0.0858,-2.19836 -0.2796,-6.97319 -0.34984,-9.40235 -0.0339,-1.1735 -0.0789,-3.19824 -0.0538,-4.49548 0.0157,-0.81181 0.0367,-0.88805 0.11507,-1.57024 0,0 -0.99022,-0.0187 -0.99022,-0.0187 z" />
    <path
       style="fill:#000000;stroke-width:0.25;stroke-linecap:square;stroke-dasharray:none;paint-order:markers stroke fill"
       id="path2431"
       d="m 474.36671,963.72675 c 0.45016,5.97555 0.77539,11.95968 1.10319,17.94291 0.68319,13.15772 1.47481,26.30914 2.25526,39.46134 0.3943,7.7404 0.86147,15.4852 0.88813,23.2379 0,0 0.86491,-7e-4 0.86491,-7e-4 v 0 c -0.0913,-7.7559 -0.58879,-15.5005 -1.04577,-23.2415 -0.82776,-13.1487 -1.68134,-26.29652 -2.22984,-39.46077 -0.28194,-5.98271 -0.57219,-11.96505 -0.84642,-17.94811 0,0 -0.98946,0.009 -0.98946,0.009 z" />
    <path
       style="fill:#000000;stroke-width:0.25;stroke-linecap:square;stroke-dasharray:none;paint-order:markers stroke fill"
       id="path2433"
       d="m 488.13191,976.61723 c -0.1811,0.66137 -0.2377,0.81028 -0.35185,1.60817 -0.22324,1.56055 -0.30598,2.97427 -0.38562,4.57292 -0.15521,3.11562 -0.18583,5.31616 -0.26321,8.49632 -0.21794,11.08126 -0.0469,22.16466 -0.058,33.24696 -0.0247,7.5397 -0.16279,15.0782 -0.30038,22.6165 0,0 0.71991,0 0.71991,0 v 0 c 0.13459,-7.5388 0.28019,-15.0776 0.3027,-22.6178 0.006,-11.0814 -0.17385,-22.1652 0.10494,-33.24475 0.11093,-3.34413 0.14398,-5.24397 0.35558,-8.49221 0.13352,-2.04957 0.24897,-4.16755 0.86485,-6.1427 0,0 -0.98894,-0.0447 -0.98894,-0.0447 z" />
    <path
       style="fill:#000000;stroke-width:0.25;stroke-linecap:square;stroke-dasharray:none;paint-order:markers stroke fill"
       id="path2435"
       d="m 473.80146,1032.9454 c -0.0435,1.0195 -0.0499,0.9273 -0.0362,2.1951 0.0175,1.6166 0.0901,3.9856 0.12482,5.5109 0.1062,4.6626 0.0912,4.4193 0.163,9.4357 0.0618,9.2017 0.17633,18.4039 0.59658,27.5974 0.28552,6.2461 0.50922,9.2269 0.91352,15.4386 0.64422,9.161 0.34796,4.7283 0.89461,13.2976 0,0 0.69246,0 0.69246,0 v 0 c -0.60771,-8.5686 -0.28704,-4.1362 -0.96471,-13.297 -0.4211,-6.3459 -0.63563,-9.0519 -0.91679,-15.4368 -0.40483,-9.1933 -0.46989,-18.395 -0.47336,-27.5958 -0.0279,-5.6079 -0.014,-4.2936 -0.0648,-9.4365 -0.0172,-1.7446 -0.0524,-3.7366 -0.0358,-5.5081 0.0117,-1.2412 0.0192,-1.185 0.0895,-2.1874 0,0 -0.98291,-0.01 -0.98291,-0.01 z" />
    <path
       style="fill:#000000;stroke-width:0.25;stroke-linecap:square;stroke-dasharray:none;paint-order:markers stroke fill"
       id="path2437"
       d="m 482.93075,1041.6134 c -0.39252,6.0252 0.0167,12.074 0.28421,18.096 0.72324,13.761 1.39661,27.5242 1.90323,41.295 0.2202,7.8752 0.14085,4.0234 0.24535,11.5552 0,0 0.72696,0 0.72696,0 v 0 c -0.13949,-7.533 -0.0441,-3.6807 -0.29307,-11.5567 -0.56235,-13.7676 -1.24777,-27.5295 -1.84911,-41.2953 -0.21586,-6.0171 -0.59064,-12.0745 -0.0323,-18.0833 0,0 -0.98526,-0.01 -0.98526,-0.01 z" />
    <path
       style="fill:#000000;stroke-width:0.25;stroke-linecap:square;stroke-dasharray:none;paint-order:markers stroke fill"
       id="path2439"
       d="m 470.14751,1053.0143 c -0.01,0.2208 -0.0281,0.4414 -0.0292,0.6625 -0.0115,2.2911 0.13313,4.588 0.18144,6.8778 0.0407,1.9288 0.11578,7.4947 0.13988,9.1949 0.0881,7.9161 0.32691,15.832 1.01236,23.7214 0.37727,4.3422 0.68784,6.6403 1.20291,10.9286 0.59322,4.662 1.19681,9.3233 1.59896,14.0067 0.28547,3.3245 0.32173,4.4681 0.49723,7.7385 0,0 0.81627,0 0.81627,0 v 0 c -0.19428,-3.3485 -0.22627,-4.3326 -0.53117,-7.7416 -0.33457,-3.7408 -0.52881,-5.2339 -1.00201,-9.0022 -0.20962,-1.6692 -0.42898,-3.3372 -0.64348,-5.0058 -0.52378,-4.2559 -0.84944,-6.6164 -1.23291,-10.925 -0.70189,-7.8862 -0.93294,-15.8021 -0.96636,-23.7168 -0.018,-3.0653 -0.0265,-6.1306 -0.052,-9.1958 -0.0152,-1.8334 -0.0628,-3.6665 -0.07,-5.5 -0.005,-1.2723 -0.007,-1.0642 0.066,-2.0185 0,0 -0.98791,-0.02 -0.98791,-0.02 z" />
    <path
       style="fill:#000000;stroke-width:0.25;stroke-linecap:square;stroke-dasharray:none;paint-order:markers stroke fill"
       id="path2441"
       d="m 481.85095,1103.9775 c -0.0908,0.1478 -0.2098,0.2817 -0.27253,0.4435 -0.82235,2.1204 -1.21022,5.3401 -1.50151,7.4751 -0.70105,5.1385 -0.75129,6.4107 -1.25903,11.9014 -0.94365,12.1407 -1.4114,24.3109 -1.96644,36.4734 -0.46862,10.2688 -0.36203,7.9232 -0.88109,17.8514 -0.16902,2.5983 -0.33804,5.1965 -0.50706,7.7948 0,0 0.61369,0 0.61369,0 v 0 c 0.15646,-2.5986 0.31291,-5.1971 0.46937,-7.7957 0.54265,-11.2864 0.30288,-6.111 0.82882,-17.8519 0.54492,-12.1643 1.04021,-24.3368 2.11072,-36.4692 0.5304,-5.1371 0.65545,-7.0376 1.39556,-11.8948 0.19848,-1.3027 0.42388,-2.6016 0.68212,-3.8937 0.1854,-0.9277 0.56148,-2.5532 0.98799,-3.5383 0.0663,-0.153 0.19012,-0.274 0.28518,-0.411 0,0 -0.98579,-0.089 -0.98579,-0.089 z" />
    <path
       style="fill:#000000;stroke-width:0.25;stroke-linecap:square;stroke-dasharray:none;paint-order:markers stroke fill"
       id="path2443"
       d="m 469.50241,1122.175 c 0.0235,5.9985 0.19544,11.9962 0.34436,17.9928 0.37201,14.4936 0.88853,28.9828 1.13726,43.4792 0.0714,8.7829 0.18675,17.5652 0.29066,26.3477 0,0 0.71916,0 0.71916,0 v 0 c -0.16212,-8.7821 -0.30476,-17.5643 -0.38051,-26.3476 -0.2546,-14.4956 -0.78774,-28.9839 -1.03597,-43.4798 -0.10252,-5.994 -0.23913,-11.9938 -0.0849,-17.9878 0,0 -0.99009,0 -0.99009,0 z" />
    <path
       style="fill:#000000;stroke-width:0.25;stroke-linecap:square;stroke-dasharray:none;paint-order:markers stroke fill"
       id="path2445"
       d="m 488.98867,1112.1438 c -0.22749,0.7489 -0.2616,0.8044 -0.42906,1.7607 -0.29333,1.6751 -0.54085,3.7784 -0.72836,5.4038 -0.47079,4.081 -0.55514,5.1842 -0.97043,9.483 -0.95059,11.3387 -1.93356,22.684 -2.33536,34.0589 -0.0835,2.3627 -0.11453,4.7268 -0.1718,7.0903 -0.20057,9.1435 0.14677,18.2852 0.1874,27.4279 0.0297,6.6892 -0.0273,7.6584 -0.15298,14.3332 -0.0723,2.1778 -0.14458,4.3555 -0.21687,6.5333 0,0 0.67669,0 0.67669,0 v 0 c 0.0623,-2.1781 0.12457,-4.3561 0.18685,-6.5342 0.11924,-6.4449 0.18034,-7.8774 0.16071,-14.3351 -0.0278,-9.1421 -0.37195,-18.2828 -0.19255,-27.4257 0.058,-2.3629 0.0914,-4.7266 0.17409,-7.0888 0.39807,-11.3758 1.37151,-22.7238 2.42396,-34.0544 0.41705,-3.9412 0.57636,-5.6922 1.06664,-9.4795 0.21082,-1.6285 0.49851,-3.7214 0.83161,-5.3937 0.19209,-0.9644 0.22241,-0.9955 0.47853,-1.7375 0,0 -0.98907,-0.044 -0.98907,-0.044 z" />
    <path
       style="fill:#000000;stroke-width:0.25;stroke-linecap:square;stroke-dasharray:none;paint-order:markers stroke fill"
       id="path2447"
       d="m 478.94558,1193.2322 c -0.9822,6.6548 -1.37308,13.3805 -1.81172,20.0874 -0.93096,16.9527 -1.38489,33.9264 -2.062,50.8903 -0.44486,12.723 -1.34405,25.4406 -1.29551,38.1774 0.008,2.1566 0.0762,4.3125 0.11433,6.4688 0.077,1.9985 0.15396,3.9971 0.23095,5.9956 0,0 0.70324,0 0.70324,0 v 0 c -0.0847,-1.998 -0.16943,-3.9961 -0.25414,-5.9941 -0.044,-2.1557 -0.118,-4.3109 -0.13201,-6.467 -0.0828,-12.7351 0.76643,-25.4542 1.20832,-38.1756 0.34043,-8.5429 0.35303,-8.6293 0.65704,-17.1772 0.39977,-11.2407 0.71544,-22.4879 1.50127,-33.7106 0.51964,-6.7051 0.98638,-13.4363 2.11767,-20.0729 0,0 -0.97744,-0.019 -0.97744,-0.019 z" />
    <path
       style="fill:#000000;stroke-width:0.25;stroke-linecap:square;stroke-dasharray:none;paint-order:markers stroke fill"
       id="path2449"
       d="m 488.18241,1204.1098 c -0.70316,5.8474 -1.26451,11.7125 -1.8575,17.5721 -1.62004,16.3842 -2.63694,32.8189 -3.79739,49.2397 -0.74015,11.1743 -2.08495,22.2915 -3.48769,33.3975 0,0 0.59946,0.01 0.59946,0.01 v 0 c 1.39381,-11.1071 2.71318,-22.2267 3.44958,-33.401 1.15978,-16.4237 2.17545,-32.8646 3.96078,-49.236 0.65572,-5.8565 1.2481,-11.7273 2.12283,-17.5557 0,0 -0.99007,-0.024 -0.99007,-0.024 z" />
    <path
       style="fill:#000000;stroke-width:0.25;stroke-linecap:square;stroke-dasharray:none;paint-order:markers stroke fill"
       id="path2451"
       d="m 472.48518,1219.2868 c -0.45674,7.6509 -0.64762,15.3178 -0.91505,22.9775 0,0 0.63807,0 0.63807,0 v 0 c 0.33506,-7.6575 0.57356,-15.3311 1.26554,-22.9665 0,0 -0.98856,-0.014 -0.98856,-0.014 z" />
    <path
       style="fill:#000000;stroke-width:0.25;stroke-linecap:square;stroke-dasharray:none;paint-order:markers stroke fill"
       id="path2453"
       d="m 486.27689,1298.9334 c -0.75995,9.5632 -1.10012,19.1539 -1.48205,28.7377 -0.68218,16.6209 -0.42789,33.2554 -0.12203,49.8808 0.14457,6.7504 0.1776,13.5017 0.17958,20.2533 0,0 0.70389,-3e-4 0.70389,-3e-4 v 0 c -0.0508,-6.7519 -0.11864,-13.5036 -0.26778,-20.2542 -0.34268,-16.6237 -0.63253,-33.2585 0.11857,-49.877 0.42518,-9.5852 0.80854,-19.1853 1.8448,-28.7285 0,0 -0.97498,-0.012 -0.97498,-0.012 z" />
    <path
       style="fill:#000000;stroke-width:0.25;stroke-linecap:square;stroke-dasharray:none;paint-order:markers stroke fill"
       id="path2455"
       d="m 476.67161,1315.9028 c -0.12517,1.43 -0.14534,1.3906 -0.1497,3.1194 -0.005,1.9299 0.10407,6.2761 0.13424,7.8771 0.12965,6.881 0.11478,6.6661 0.20903,14.0461 0.10305,12.1664 0.29436,24.3337 0.79057,36.4912 0.24924,6.1065 0.55473,11.5912 0.87493,17.6806 0.11287,2.511 0.22573,5.022 0.33859,7.533 0,0 0.62698,0 0.62698,0 v 0 c -0.12959,-2.511 -0.25919,-5.022 -0.38878,-7.5331 -0.37031,-6.6128 -0.63976,-11.0118 -0.91591,-17.6793 -0.5035,-12.1566 -0.67842,-24.3236 -0.70911,-36.4898 -0.0349,-9.6128 -0.0165,-5.3449 -0.0582,-14.0466 -0.009,-1.8256 -0.0465,-5.7911 -3.3e-4,-7.8729 0.0394,-1.7746 0.0524,-1.6498 0.22835,-3.0932 0,0 -0.98063,-0.029 -0.98063,-0.029 z" />
    <path
       style="fill:#000000;stroke-width:0.25;stroke-linecap:square;stroke-dasharray:none;paint-order:markers stroke fill"
       id="path2457"
       d="m 471.88635,1402.3734 c -0.33008,6.8329 -0.24897,13.6771 -0.23804,20.5155 0.003,11.5598 0.32772,23.1178 0.95757,34.6604 0.30438,5.5779 0.83822,13.3379 1.21087,18.9284 0.74178,10.2114 1.2819,20.4343 1.67139,30.6645 0,0 0.69724,0 0.69724,0 v 0 c -0.49067,-10.2287 -1.08342,-20.4517 -1.83223,-30.6651 -0.63849,-9.4136 -1.284,-18.8258 -1.64628,-28.2553 -0.24641,-6.4136 -0.34103,-11.3487 -0.38093,-17.7305 -0.0158,-2.533 0.004,-5.0661 0.006,-7.5992 0.0603,-6.8356 0.0254,-13.6859 0.54264,-20.5066 0,0 -0.98788,-0.01 -0.98788,-0.01 z" />
    <path
       style="fill:#000000;stroke-width:0.25;stroke-linecap:square;stroke-dasharray:none;paint-order:markers stroke fill"
       id="path2459"
       d="m 488.66304,1395.3077 c -1.17009,6.9101 -1.92673,13.8832 -2.73058,20.8428 -1.81478,15.6215 -3.08137,31.298 -4.01619,46.9946 -0.42743,8.525 -0.92149,17.046 -1.48008,25.5634 0,0 0.71426,0 0.71426,0 v 0 c 0.52389,-8.5184 0.99691,-17.0395 1.40376,-25.5643 0.13832,-2.4359 0.26195,-4.8726 0.41496,-7.3075 0.8331,-13.2581 2.05556,-26.4915 3.62095,-39.6829 0.88211,-6.96 1.70251,-13.9416 3.05725,-20.8297 0,0 -0.98433,-0.021 -0.98433,-0.021 z" />
    <path
       style="fill:#000000;stroke-width:0.25;stroke-linecap:square;stroke-dasharray:none;paint-order:markers stroke fill"
       id="path2461"
       d="m 482.09228,1387.6578 c 0.0219,5.4116 -0.11665,10.8248 -0.18182,16.2365 0,0 0.72793,0 0.72793,0 v 0 c 0.1087,-5.4152 0.26825,-10.8287 0.44318,-16.2417 0,0 -0.98929,0 -0.98929,0 z" />
    <path
       style="fill:#000000;stroke-width:0.25;stroke-linecap:square;stroke-dasharray:none;paint-order:markers stroke fill"
       id="path2463"
       d="m 467.03411,1394.3566 c -0.30337,2.2513 -0.29094,4.5346 -0.3375,6.8013 0,0 0.86838,0 0.86838,0 v 0 c 0.0707,-2.2607 0.0772,-4.5441 0.45504,-6.7807 0,0 -0.98592,-0.023 -0.98592,-0.023 z" />
    <path
       style="fill:#000000;stroke-width:0.25;stroke-linecap:square;stroke-dasharray:none;paint-order:markers stroke fill"
       id="path2465"
       d="m 486.54455,1458.7772 c -0.0431,0.1904 -0.0975,0.3786 -0.12922,0.5712 -0.33355,2.0229 -0.41581,4.1075 -0.52782,6.1485 -0.17499,3.1884 -0.25218,5.4471 -0.3838,8.7139 -0.33481,8.6153 -0.68697,17.2305 -0.86517,25.8509 -0.0996,4.818 -0.13796,9.3532 -0.19109,14.1721 -0.16618,14.8543 -0.68264,29.7012 -0.97421,44.5533 -0.0438,2.264 -0.0877,4.528 -0.13154,6.792 0,0 0.66402,0 0.66402,0 v 0 c 0.0328,-2.264 0.0655,-4.528 0.0983,-6.792 0.27858,-14.8527 0.81749,-29.6991 0.99262,-44.5538 0.14849,-13.3464 0.43556,-26.691 1.16594,-40.0202 0.15297,-3.0147 0.27483,-5.7229 0.47886,-8.7114 0.13883,-2.0337 0.25283,-4.1228 0.64497,-6.1312 0.0367,-0.1878 0.0982,-0.3699 0.14724,-0.5549 0,0 -0.98906,-0.04 -0.98906,-0.04 z" />
    <path
       style="fill:#000000;stroke-width:0.25;stroke-linecap:square;stroke-dasharray:none;paint-order:markers stroke fill"
       id="path2467"
       d="m 472.35147,1504.4361 c -0.042,0.2739 -0.0999,0.5459 -0.12593,0.8218 -0.25575,2.713 -0.19123,5.4884 -0.11952,8.2049 0.11251,4.2616 0.25159,5.9232 0.51402,10.3191 0.81417,13.1019 2.72147,26.0951 4.56899,39.0805 1.18492,8.3633 2.09895,16.7676 2.53742,25.205 0.0958,1.8439 0.14015,3.6902 0.21023,5.5352 0,0 0.72597,0 0.72597,0 v 0 c -0.0781,-1.8456 -0.13205,-3.6925 -0.23426,-5.5369 -0.46758,-8.4385 -1.37093,-16.845 -2.56832,-25.2099 -1.84865,-12.9814 -3.77453,-25.9707 -4.51579,-39.075 -0.22771,-4.3448 -0.36433,-6.0982 -0.42623,-10.3155 -0.0398,-2.7107 -0.0622,-5.4884 0.2664,-8.1884 0.0332,-0.2731 0.10012,-0.541 0.15019,-0.8114 0,0 -0.98317,-0.027 -0.98317,-0.027 z" />
    <path
       style="fill:#000000;stroke-width:0.25;stroke-linecap:square;stroke-dasharray:none;paint-order:markers stroke fill"
       id="path2469"
       d="m 488.33583,1526.7802 c -0.0258,0.1771 -0.0616,0.353 -0.0774,0.5312 -0.14123,1.5937 -0.13813,3.2099 -0.19874,4.8069 -0.11854,3.1227 -0.11235,2.7631 -0.28609,6.1383 -0.40214,6.4301 -0.88775,12.8545 -1.21249,19.2894 -0.24224,4.8002 -0.27346,6.1981 -0.44172,10.9765 -0.13943,8.8995 -0.57658,17.8013 -0.46234,26.7038 0.0221,1.722 0.0889,3.4431 0.13337,5.1647 0,0 0.74452,0 0.74452,0 v 0 c -0.0465,-1.7209 -0.11625,-3.4414 -0.13938,-5.1627 -0.11965,-8.9017 0.32133,-17.8024 0.45514,-26.7012 0.16733,-4.9035 0.18441,-6.0475 0.44184,-10.9749 0.26572,-5.086 0.64982,-10.162 1.0228,-15.2408 0.0991,-1.3492 0.19343,-2.6987 0.29014,-4.0481 0.24892,-4.084 0.16078,-2.4436 0.34547,-6.1393 0.0795,-1.5913 0.0978,-3.2096 0.28103,-4.7951 0.0202,-0.1747 0.0613,-0.3465 0.0919,-0.5198 0,0 -0.98812,-0.027 -0.98812,-0.027 z" />
    <path
       style="fill:#000000;stroke-width:0.25;stroke-linecap:square;stroke-dasharray:none;paint-order:markers stroke fill"
       id="path2471"
       d="m 474.2169,1576.1563 c -0.67471,6.2611 -0.95034,12.5541 -1.20909,18.8431 -0.54344,15.9294 -0.45492,31.8713 -0.45041,47.8073 -0.01,11.8018 -0.32155,23.6 -0.60596,35.3974 0,0 0.70138,0 0.70138,0 v 0 c 0.22769,-11.7987 0.49521,-23.5975 0.50314,-35.399 -0.007,-15.935 -0.13417,-31.8793 0.54314,-47.804 0.34023,-6.2895 0.66467,-12.5902 1.50278,-18.838 0,0 -0.98498,-0.01 -0.98498,-0.01 z" />
    <path
       style="fill:#000000;stroke-width:0.25;stroke-linecap:square;stroke-dasharray:none;paint-order:markers stroke fill"
       id="path2473"
       d="m 482.20543,1590.4447 c -0.31903,3.9616 -0.44748,7.9318 -0.56539,11.904 -0.37117,11.4112 -0.75017,22.8224 -1.13868,34.2331 -0.33935,10.5701 -0.86909,21.1324 -1.31375,31.6982 -0.33986,6.91 -0.28538,13.8288 -0.35606,20.7442 -0.0642,2.581 -0.002,1.392 -0.1577,3.5683 0,0 0.92641,0.01 0.92641,0.01 v 0 c 0.11184,-2.1813 0.0699,-0.9904 0.10287,-3.5734 0.0185,-6.9144 -0.0561,-13.8317 0.26112,-20.7415 0.42065,-10.566 0.88395,-21.1303 1.23224,-31.6991 0.38224,-11.4123 0.76934,-22.8242 1.25611,-34.2326 0.15817,-3.9748 0.32875,-7.9482 0.74111,-11.9061 0,0 -0.98828,-7e-4 -0.98828,-7e-4 z" />
    <path
       style="fill:#000000;stroke-width:0.25;stroke-linecap:square;stroke-dasharray:none;paint-order:markers stroke fill"
       id="path2475"
       d="m 488.78001,1610.2494 c -0.0102,0.2352 -0.0155,0.4706 -0.0308,0.7055 -0.10528,1.6232 -0.27614,3.2354 -0.33619,4.8626 -0.1027,2.7833 -0.0629,3.6782 -0.0463,6.6025 0.10165,6.2907 0.49539,12.5709 0.77932,18.8546 0.20435,4.5224 0.24358,5.9793 0.4043,10.56 0.32807,10.5059 0.55798,21.0149 0.69758,31.525 0,0 0.77048,0 0.77048,0 v 0 c -0.18819,-10.51 -0.41872,-21.0194 -0.73656,-31.5263 -0.17706,-5.4568 -0.15342,-5.2096 -0.38704,-10.561 -0.27423,-6.282 -0.66073,-12.5615 -0.70882,-18.8512 0.0114,-2.9329 -0.0229,-3.8084 0.11678,-6.5968 0.0806,-1.6093 0.16356,-2.287 0.30882,-3.7899 0.12149,-1.2569 0.0801,-0.7491 0.15173,-1.7838 0,0 -0.98334,0 -0.98334,0 z" />
    <path
       style="fill:none;stroke:#000000;stroke-width:0.5;stroke-linecap:butt;stroke-linejoin:miter;stroke-opacity:1;stroke-dasharray:none"
       d="m 475,208.24396 c 0.14279,18.1466 0.29551,37.55567 0.44326,56.33199"
       id="path2918"
       inkscape:path-effect="#path-effect2920"
       inkscape:original-d="m 475,208.24396 c 0.15636,18.14649 0.29651,37.55566 0.44326,56.33199" />
  </g>
</svg>
